<?xml version="1.0" encoding="UTF-8" standalone="no"?><svg version="1.1" xmlns="http://www.w3.org/2000/svg" xmlns:xlink="http://www.w3.org/1999/xlink" width="100%" style="max-width: 360px; height:auto; max-height: 360px;" viewBox="0 0 360 360"><path style="fill:#72c376" d="m324.758 102.971-52.975-26.737-58.154 29.02 54.416 27.322 56.713-29.605zm24.297 12.256 55.544 28.049-57.627 28.935-54.501-27.365 56.584-29.619zm74.191-38.594 57.07 28.621-51.049 25.624L373.61 102.8l49.636-26.167zm-24.568-12.327L347.3 38.539l-50.82 25.368 52.946 26.694 49.252-26.295zm-40.163 221.231v70.111l62.234-31.061-.057-70.138-62.177 31.088zm62.149-55.571-.072-69.397-62.077 30.86v69.426l62.149-30.889zm74.718-12.998v70.381l-53.089 26.481-.043-70.054 53.132-26.808zm0-24.611v-68.969l-53.189 26.437.043 69.54 53.146-27.008z" transform="translate(-166.297 -17.094)"/><path d="m161.912 328.3-35.049-16.824c-3.895-1.87-7.409-6.181-8.981-10.87-1.572-4.689-.811-9.133 1.903-10.891l32.192-20.837-.064-17.08-60.888 39.414c-1.94 1.255-4.275 1.009-7-.298l-42.838-20.563c-3.894-1.869-7.409-6.181-8.981-10.871-1.573-4.689-.812-9.133 1.904-10.89l103.941-67.282-15.186-7.29-74.856 48.452c-2.714 1.759-6.995.579-10.507-2.856-3.899-3.621-6.251-8.686-6.267-13.065l-.176-48.177c-.011-3.069 1.147-5.135 2.697-6.575l18.229-11.802-11.681-5.607c-5.064-2.43-9.366-9.304-9.388-15.438-.023-6.13 4.244-8.893 9.696-6.276l35.05 16.824c3.894 1.87 7.408 6.182 8.98 10.871s.81 9.134-1.904 10.89L50.55 172.098l.06 17.081 60.892-39.415c1.939-.818 4.271-1.011 6.998.298l42.837 20.562c3.893 1.869 7.408 6.18 8.981 10.871 1.573 4.69.811 9.134-1.904 10.89l-103.94 67.282 15.187 7.29 74.853-48.452c2.714-1.759 6.994-.58 10.506 2.857 3.511 3.432 5.864 8.497 5.878 12.876l.175 48.177c.013 3.069-1.146 5.136-2.696 6.577l-18.226 11.8 11.68 5.607c5.454 2.618 9.755 9.492 9.777 15.624.022 6.132-4.243 8.894-9.696 6.277z" fill="#388e3c"/><path d="M368.891 309.031h-38.878c-4.426-.024-9.64-2.466-13.159-6.065-1.759-1.82-2.999-3.894-3.546-5.828-.552-1.953-.399-3.929.48-5.423l19.863-32.483-6.931-14.3-37.359 61.1c-1.335 2.076-3.759 2.984-6.865 2.999h-47.518c-4.425-.024-9.64-2.466-13.16-6.066-1.759-1.82-2.999-3.894-3.546-5.828-.552-1.952-.398-3.928.482-5.422l64.125-104.875h-15.673l-46.371 75.834c-.93 1.465-2.609 2.483-4.578 2.843-1.95.357-4.329.143-6.712-.656-5.166-1.623-9.623-5.299-11.598-9.324l-21.007-43.356c-1.363-2.887-1.22-5.451-.429-7.496l.015-.039 10.885-17.806h-12.065c-5.751-.039-12.829-4.515-15.594-10.137-1.362-2.867-1.387-5.589-.234-7.475 1.154-1.887 3.574-3.071 6.709-3.097h38.879c4.426.024 9.639 2.467 13.159 6.066 1.758 1.82 2.998 3.895 3.545 5.829.552 1.952.398 3.928-.481 5.422L201.47 215.93l6.928 14.303 37.385-61.14.028-.032c1.455-1.627 3.662-2.895 6.813-2.929h47.517c4.424.024 9.638 2.466 13.159 6.066 1.759 1.82 3 3.894 3.546 5.829.552 1.952.398 3.928-.482 5.422L252.24 288.322h15.674l46.368-75.833c.93-1.465 2.61-2.483 4.578-2.843 1.95-.357 4.332-.142 6.717.659 4.729 1.619 9.187 5.295 11.161 9.321l21.006 43.357c1.363 2.886 1.221 5.451.43 7.497l-.015.039-10.883 17.803h12.064c6.184.039 13.261 4.516 16.026 10.137 1.361 2.867 1.387 5.59.234 7.475-1.153 1.887-3.573 3.071-6.709 3.097zm5.856-3.619c1.016-1.662 1.031-3.866-.281-6.517-2.583-5.417-9.21-9.612-15.126-9.573h-13.848l11.768-19.249c.743-1.885.899-4.018-.416-6.654l-21.006-43.357c-1.842-3.858-6.01-7.278-10.581-8.809-2.268-.777-4.397-.956-6.217-.623-1.8.329-3.148 1.086-3.904 2.381l-46.662 76.311h-18.018l65.054-106.395c.808-1.265.88-2.836.374-4.629-.512-1.81-1.613-3.677-3.302-5.403-3.375-3.496-8.229-5.787-12.441-5.763h-47.517c-2.899-.034-4.703 1.048-6.034 2.557l-38.294 62.628-7.964-16.443 20.143-32.948c.808-1.264.879-2.836.373-4.628-.512-1.811-1.613-3.678-3.301-5.405-3.374-3.495-8.227-5.786-12.441-5.762h-38.879c-2.912-.026-4.841.958-5.856 2.619-1.016 1.662-1.031 3.867.281 6.517 2.583 5.418 9.211 9.612 14.694 9.573h13.849l-11.77 19.252c-.743 1.884-.898 4.016.415 6.653l21.007 43.356c1.843 3.857 6.004 7.275 11.001 8.806 2.268.777 4.409.96 6.229.627 1.801-.33 3.149-1.087 3.904-2.382l46.665-76.312h18.017l-65.055 106.397c-.808 1.265-.88 2.836-.373 4.628.511 1.81 1.613 3.677 3.301 5.404 3.374 3.496 8.229 5.786 12.442 5.762h47.518c2.938.015 4.936-.655 6.013-2.521l38.313-62.662 7.967 16.44-20.147 32.949c-.807 1.265-.878 2.836-.372 4.628.512 1.811 1.614 3.678 3.302 5.405 3.373 3.495 8.227 5.785 12.441 5.761h38.878c2.912.026 4.841-.958 5.856-2.619z" style="fill:none" transform="rotate(25.641 267.559 237.58)"/><path d="M368.891 309.031h-38.878c-4.426-.024-9.64-2.466-13.159-6.065-1.759-1.82-2.999-3.894-3.546-5.828-.552-1.953-.399-3.929.48-5.423l19.863-32.483-6.931-14.3-37.359 61.1c-1.335 2.076-3.759 2.984-6.865 2.999h-47.518c-4.425-.024-9.64-2.466-13.16-6.066-1.759-1.82-2.999-3.894-3.546-5.828-.552-1.952-.398-3.928.482-5.422l64.125-104.875h-15.673l-46.371 75.834c-.93 1.465-2.609 2.483-4.578 2.843-1.95.357-4.329.143-6.712-.656-5.166-1.623-9.623-5.299-11.598-9.324l-21.007-43.356c-1.363-2.887-1.22-5.451-.429-7.496l.015-.039 10.885-17.806h-12.065c-5.751-.039-12.829-4.515-15.594-10.137-1.362-2.867-1.387-5.589-.234-7.475 1.154-1.887 3.574-3.071 6.709-3.097h38.879c4.426.024 9.639 2.467 13.159 6.066 1.758 1.82 2.998 3.895 3.545 5.829.552 1.952.398 3.928-.481 5.422L201.47 215.93l6.928 14.303 37.385-61.14.028-.032c1.455-1.627 3.662-2.895 6.813-2.929h47.517c4.424.024 9.638 2.466 13.159 6.066 1.759 1.82 3 3.894 3.546 5.829.552 1.952.398 3.928-.482 5.422L252.24 288.322h15.674l46.368-75.833c.93-1.465 2.61-2.483 4.578-2.843 1.95-.357 4.332-.142 6.717.659 4.729 1.619 9.187 5.295 11.161 9.321l21.006 43.357c1.363 2.886 1.221 5.451.43 7.497l-.015.039-10.883 17.803h12.064c6.184.039 13.261 4.516 16.026 10.137 1.361 2.867 1.387 5.59.234 7.475-1.153 1.887-3.573 3.071-6.709 3.097zm5.856-3.619c1.016-1.662 1.031-3.866-.281-6.517-2.583-5.417-9.21-9.612-15.126-9.573h-13.848l11.768-19.249c.743-1.885.899-4.018-.416-6.654l-21.006-43.357c-1.842-3.858-6.01-7.278-10.581-8.809-2.268-.777-4.397-.956-6.217-.623-1.8.329-3.148 1.086-3.904 2.381l-46.662 76.311h-18.018l65.054-106.395c.808-1.265.88-2.836.374-4.629-.512-1.81-1.613-3.677-3.302-5.403-3.375-3.496-8.229-5.787-12.441-5.763h-47.517c-2.899-.034-4.703 1.048-6.034 2.557l-38.294 62.628-7.964-16.443 20.143-32.948c.808-1.264.879-2.836.373-4.628-.512-1.811-1.613-3.678-3.301-5.405-3.374-3.495-8.227-5.786-12.441-5.762h-38.879c-2.912-.026-4.841.958-5.856 2.619-1.016 1.662-1.031 3.867.281 6.517 2.583 5.418 9.211 9.612 14.694 9.573h13.849l-11.77 19.252c-.743 1.884-.898 4.016.415 6.653l21.007 43.356c1.843 3.857 6.004 7.275 11.001 8.806 2.268.777 4.409.96 6.229.627 1.801-.33 3.149-1.087 3.904-2.382l46.665-76.312h18.017l-65.055 106.397c-.808 1.265-.88 2.836-.373 4.628.511 1.81 1.613 3.677 3.301 5.404 3.374 3.496 8.229 5.786 12.442 5.762h47.518c2.938.015 4.936-.655 6.013-2.521l38.313-62.662 7.967 16.44-20.147 32.949c-.807 1.265-.878 2.836-.372 4.628.512 1.811 1.614 3.678 3.302 5.405 3.373 3.495 8.227 5.785 12.441 5.761h38.878c2.912.026 4.841-.958 5.856-2.619z" style="fill:none" transform="rotate(25.641 267.559 237.58)"/><path d="M368.891 309.031h-38.878c-4.426-.024-9.64-2.466-13.159-6.065-1.759-1.82-2.999-3.894-3.546-5.828-.552-1.953-.399-3.929.48-5.423l19.863-32.483-6.931-14.3-37.359 61.1c-1.335 2.076-3.759 2.984-6.865 2.999h-47.518c-4.425-.024-9.64-2.466-13.16-6.066-1.759-1.82-2.999-3.894-3.546-5.828-.552-1.952-.398-3.928.482-5.422l64.125-104.875h-15.673l-46.371 75.834c-.93 1.465-2.609 2.483-4.578 2.843-1.95.357-4.329.143-6.712-.656-5.166-1.623-9.623-5.299-11.598-9.324l-21.007-43.356c-1.363-2.887-1.22-5.451-.429-7.496l.015-.039 10.885-17.806h-12.065c-5.751-.039-12.829-4.515-15.594-10.137-1.362-2.867-1.387-5.589-.234-7.475 1.154-1.887 3.574-3.071 6.709-3.097h38.879c4.426.024 9.639 2.467 13.159 6.066 1.758 1.82 2.998 3.895 3.545 5.829.552 1.952.398 3.928-.481 5.422L201.47 215.93l6.928 14.303 37.385-61.14.028-.032c1.455-1.627 3.662-2.895 6.813-2.929h47.517c4.424.024 9.638 2.466 13.159 6.066 1.759 1.82 3 3.894 3.546 5.829.552 1.952.398 3.928-.482 5.422L252.24 288.322h15.674l46.368-75.833c.93-1.465 2.61-2.483 4.578-2.843 1.95-.357 4.332-.142 6.717.659 4.729 1.619 9.187 5.295 11.161 9.321l21.006 43.357c1.363 2.886 1.221 5.451.43 7.497l-.015.039-10.883 17.803h12.064c6.184.039 13.261 4.516 16.026 10.137 1.361 2.867 1.387 5.59.234 7.475-1.153 1.887-3.573 3.071-6.709 3.097zm5.856-3.619c1.016-1.662 1.031-3.866-.281-6.517-2.583-5.417-9.21-9.612-15.126-9.573h-13.848l11.768-19.249c.743-1.885.899-4.018-.416-6.654l-21.006-43.357c-1.842-3.858-6.01-7.278-10.581-8.809-2.268-.777-4.397-.956-6.217-.623-1.8.329-3.148 1.086-3.904 2.381l-46.662 76.311h-18.018l65.054-106.395c.808-1.265.88-2.836.374-4.629-.512-1.81-1.613-3.677-3.302-5.403-3.375-3.496-8.229-5.787-12.441-5.763h-47.517c-2.899-.034-4.703 1.048-6.034 2.557l-38.294 62.628-7.964-16.443 20.143-32.948c.808-1.264.879-2.836.373-4.628-.512-1.811-1.613-3.678-3.301-5.405-3.374-3.495-8.227-5.786-12.441-5.762h-38.879c-2.912-.026-4.841.958-5.856 2.619-1.016 1.662-1.031 3.867.281 6.517 2.583 5.418 9.211 9.612 14.694 9.573h13.849l-11.77 19.252c-.743 1.884-.898 4.016.415 6.653l21.007 43.356c1.843 3.857 6.004 7.275 11.001 8.806 2.268.777 4.409.96 6.229.627 1.801-.33 3.149-1.087 3.904-2.382l46.665-76.312h18.017l-65.055 106.397c-.808 1.265-.88 2.836-.373 4.628.511 1.81 1.613 3.677 3.301 5.404 3.374 3.496 8.229 5.786 12.442 5.762h47.518c2.938.015 4.936-.655 6.013-2.521l38.313-62.662 7.967 16.44-20.147 32.949c-.807 1.265-.878 2.836-.372 4.628.512 1.811 1.614 3.678 3.302 5.405 3.373 3.495 8.227 5.785 12.441 5.761h38.878c2.912.026 4.841-.958 5.856-2.619z" style="fill:none" transform="rotate(25.641 267.559 237.58)"/></svg>