<?xml version="1.0" encoding="UTF-8" standalone="no"?><svg version="1.1" xmlns="http://www.w3.org/2000/svg" xmlns:xlink="http://www.w3.org/1999/xlink" width="100%" style="max-width: 360px; height:auto; max-height: 360px;" viewBox="0 0 360 360"><g stroke="null"><path d="M309.616 254.834c2.087-3.615 3.384-7.689 3.384-11.346V116.512c0-3.657-1.295-7.73-3.383-11.345L180 180l129.616 74.834z" fill="#00599C"/><path d="m191.518 326.925 109.964-63.487c3.168-1.83 6.047-4.988 8.134-8.604L180 180 50.384 254.835c2.087 3.615 4.967 6.774 8.134 8.603l109.964 63.487c6.334 3.658 16.702 3.658 23.036 0z" fill="#004482"/><path d="M309.617 105.166c-2.088-3.616-4.968-6.775-8.135-8.604L191.518 33.075c-6.334-3.658-16.702-3.658-23.036 0L58.518 96.562C52.183 100.22 47 109.198 47 116.513v126.976c0 3.657 1.296 7.73 3.384 11.346L180 180l129.617-74.834z" fill="#659AD2"/><path d="M180 268.667c-48.891 0-88.667-39.776-88.667-88.667S131.11 91.334 180 91.334c31.548 0 60.97 16.977 76.784 44.305l-38.372 22.205c-7.915-13.679-22.635-22.177-38.412-22.177-24.446 0-44.333 19.888-44.333 44.333 0 24.445 19.887 44.334 44.333 44.334 15.78 0 30.499-8.498 38.414-22.18l38.373 22.204c-15.814 27.331-45.237 44.31-76.787 44.31z" fill="#FFF"/><path fill="#FFF" d="M268.667 175.074h-9.853v-9.851h-9.85v9.851h-9.853v9.852h9.853v9.852h9.85v-9.852h9.853zm36.944 0h-9.852v-9.851h-9.851v9.851h-9.852v9.852h9.852v9.852h9.85v-9.852h9.853z"/></g></svg>