<?xml version="1.0" encoding="UTF-8"?><svg id="graph-div" xmlns="http://www.w3.org/2000/svg" xmlns:xlink="http://www.w3.org/1999/xlink" style="max-width: 407.419px; height:auto; max-height: 291.5px;" width="100%" viewBox="0 0 407.419 291.5" version="1.1"><style>#graph-div .stk-n{stroke:none}#graph-div .font-d{fill:#555;fill-opacity:1}#graph-div .font-e{fill:#333;fill-opacity:1}#graph-div .font-f{fill:#000;fill-opacity:1}#graph-div .module-box{fill-rule:evenodd;fill:#FFFFDE;fill-opacity:1;stroke-width:1.5;stroke-linecap:butt;stroke-linejoin:round;stroke:#aaaa33;stroke-opacity:1;stroke-miterlimit:10}#graph-div .class-box{fill-rule:evenodd;fill:#ECECFF;fill-opacity:1;stroke-width:1.5;stroke-linecap:butt;stroke-linejoin:round;stroke:#9370DB;stroke-opacity:1;stroke-miterlimit:10}#graph-div .func-box {fill-rule:evenodd;fill:#eee;fill-opacity:1;stroke-width:1.5;stroke-linecap:butt;stroke-linejoin:round;stroke:#999;stroke-opacity:1;stroke-miterlimit:10}#graph-div .d-line{fill:none;stroke-width:1.5;stroke-linecap:butt;stroke-linejoin:round;stroke:#999;stroke-opacity:1;stroke-miterlimit:10}html[data-theme='dark'] #graph-div .font-d{fill:#ddd}html[data-theme='dark'] #graph-div .font-e{fill:#eee}html[data-theme='dark'] #graph-div .font-f{fill:#fff}html[data-theme='dark'] #graph-div .module-box{fill:#474848;stroke:#fff}html[data-theme='dark'] #graph-div .class-box{fill:#241b42;stroke:#81b1db}html[data-theme='dark'] #graph-div .func-box {fill:#1f2020;stroke:#ddd}html[data-theme='dark'] #graph-div .d-line{stroke:#777}</style>
<defs><symbol overflow="visible" id="a"><path style="stroke:none" d="M1.156-7.719V0h1.235v-4.86c0-1.109.796-2.015 1.812-2.015.89 0 1.422.578 1.422 1.547V0h1.25v-4.86c0-1.109.813-2.015 1.797-2.015.906 0 1.437.578 1.437 1.547V0h1.235v-5.797c0-1.39-.781-2.156-2.235-2.156-1.03 0-1.64.297-2.375 1.187-.453-.828-1.078-1.187-2.078-1.187-1.047 0-1.765.406-2.36 1.328v-1.094zm0 0"/></symbol><symbol overflow="visible" id="b"><path style="stroke:none" d="M.875 3.203h1.219V-.812C2.75-.016 3.469.327 4.469.327c2 0 3.297-1.61 3.297-4.062 0-2.594-1.266-4.22-3.297-4.22-1.063 0-1.969.516-2.453 1.391V-7.72H.875zm3.39-10C5.61-6.797 6.5-5.609 6.5-3.766c0 1.75-.906 2.938-2.234 2.938C2.937-.828 2.094-2 2.094-3.813c0-1.812.86-2.984 2.172-2.984zm0 0"/></symbol><symbol overflow="visible" id="c"><path style="stroke:none" d="M7.625-3.453c.016-1.11-.078-1.813-.281-2.36-.453-1.328-1.657-2.14-3.14-2.14-2.157 0-3.548 1.64-3.548 4.203C.656-1.203 2 .344 4.172.344c1.75 0 3-1 3.297-2.688H6.234C5.891-1.328 5.188-.797 4.22-.797c-.766 0-1.407-.328-1.828-.937-.329-.454-.438-.907-.454-1.72zm-5.64-1c.077-1.422.952-2.36 2.202-2.36s2.125.985 2.11 2.36zm0 0"/></symbol><symbol overflow="visible" id="d"><path style="stroke:none" d="M6.156-7.719v1.125c-.625-.937-1.375-1.36-2.36-1.36-1.968 0-3.28 1.72-3.28 4.235 0 1.266.328 2.297.968 3.031C2.063-.046 2.875.345 3.688.345c.968 0 1.671-.422 2.343-1.39v.405c0 1.032-.14 1.657-.437 2.094-.328.453-.953.719-1.703.719-.547 0-1.063-.125-1.391-.39-.297-.204-.422-.438-.469-.891H.766c.14 1.453 1.28 2.312 3.062 2.312 1.156 0 2.14-.375 2.656-.984.579-.703.813-1.656.813-3.485v-6.453zm-2.218.89c1.312 0 2.093 1.126 2.093 3.063 0 1.844-.797 2.97-2.093 2.97-1.344 0-2.157-1.141-2.157-3.016 0-1.86.828-3.016 2.157-3.016zm0 0"/></symbol><symbol overflow="visible" id="e"><path style="stroke:none" d="M9.86-7.406c-.438-2.375-1.797-3.516-4.141-3.516-1.453 0-2.61.453-3.407 1.344-.984 1.078-1.5 2.61-1.5 4.344 0 1.75.547 3.28 1.563 4.312C3.188-.062 4.25.344 5.656.344c2.625 0 4.094-1.422 4.422-4.266H8.672c-.125.719-.25 1.172-.469 1.61-.437.937-1.344 1.437-2.531 1.437-2.125 0-3.5-1.703-3.5-4.39 0-2.75 1.297-4.438 3.39-4.438.829 0 1.61.234 2.063.625.438.36.656.828.813 1.672zm0 0"/></symbol><symbol overflow="visible" id="f"><path style="stroke:none" d="M4.078-7.953c-2.187 0-3.484 1.547-3.484 4.14C.594-1.203 1.89.329 4.078.329c2.172 0 3.5-1.547 3.5-4.078 0-2.672-1.281-4.203-3.5-4.203zm0 1.14c1.39 0 2.219 1.125 2.219 3.032 0 1.828-.86 2.969-2.219 2.969-1.36 0-2.203-1.141-2.203-3 0-1.86.844-3 2.203-3zm0 0"/></symbol><symbol overflow="visible" id="g"><path style="stroke:none" d="M7.375-10.734H6.156v3.968c-.531-.78-1.343-1.187-2.375-1.187C1.766-7.953.47-6.343.47-3.891.47-1.266 1.735.344 3.83.344c1.062 0 1.765-.39 2.452-1.36V0h1.094zm-3.39 3.937c1.328 0 2.171 1.172 2.171 3.031 0 1.782-.86 2.954-2.172 2.954-1.343 0-2.25-1.204-2.25-3 0-1.782.907-2.985 2.25-2.985zm0 0"/></symbol><symbol overflow="visible" id="h"><path style="stroke:none" d="M1.063-7.719V0h1.234v-4c0-1.063.25-1.797.812-2.219.407-.328.766-.406 1.657-.422v-1.265a2.946 2.946 0 0 0-.47-.047c-.796 0-1.468.516-2.093 1.64v-1.406zm0 0"/></symbol><symbol overflow="visible" id="i"><path style="stroke:none" d="m7.469 0 3.234-9.61V0h1.375v-11.453h-2.015L6.719-1.484l-3.407-9.97H1.297V0h1.375v-9.61L5.937 0zm0 0"/></symbol><symbol overflow="visible" id="j"><path style="stroke:none" d="M.922 3.422h1.312V-.86C2.922-.016 3.704.359 4.766.359 6.89.36 8.28-1.359 8.28-3.984c0-2.766-1.36-4.5-3.515-4.5-1.141 0-2.094.546-2.625 1.468v-1.218H.92zM4.547-7.25c1.437 0 2.375 1.266 2.375 3.234 0 1.875-.953 3.141-2.375 3.141-1.406 0-2.313-1.25-2.313-3.188 0-1.937.922-3.187 2.313-3.187zm0 0"/></symbol><symbol overflow="visible" id="k"><path style="stroke:none" d="M8.125-3.688c.016-1.171-.078-1.921-.281-2.515-.5-1.406-1.782-2.281-3.36-2.281C2.172-8.484.704-6.734.704-4c0 2.719 1.421 4.375 3.75 4.375C6.312.375 7.64-.703 7.968-2.5H6.656C6.281-1.422 5.531-.844 4.5-.844c-.813 0-1.516-.36-1.953-1.015-.344-.485-.469-.954-.485-1.829zM2.109-4.75c.094-1.516 1.032-2.516 2.36-2.516 1.328 0 2.265 1.047 2.25 2.516zm0 0"/></symbol><symbol overflow="visible" id="l"><path style="stroke:none" d="M6.563-8.234v1.187c-.657-.984-1.454-1.437-2.516-1.437-2.094 0-3.5 1.828-3.5 4.515 0 1.344.344 2.453 1.031 3.235.61.687 1.5 1.109 2.36 1.109 1.015 0 1.78-.453 2.5-1.5v.438c0 1.109-.157 1.78-.47 2.234-.359.484-1.03.766-1.827.766-.579 0-1.11-.141-1.47-.407-.312-.218-.452-.468-.515-.968H.812C.954 2.5 2.173 3.421 4.079 3.421c1.234 0 2.297-.39 2.828-1.047.625-.766.875-1.781.875-3.719v-6.89zm-2.375.953c1.406 0 2.25 1.203 2.25 3.265 0 1.97-.86 3.172-2.25 3.172-1.422 0-2.282-1.219-2.282-3.219 0-1.984.875-3.218 2.282-3.218zm0 0"/></symbol><symbol overflow="visible" id="m"><path style="stroke:none" d="M10.516-7.906c-.47-2.532-1.907-3.735-4.422-3.735-1.547 0-2.782.47-3.625 1.422-1.047 1.14-1.61 2.781-1.61 4.64 0 1.86.594 3.5 1.672 4.61.875.906 2 1.344 3.5 1.344 2.797 0 4.375-1.531 4.719-4.547h-1.5c-.125.75-.281 1.25-.5 1.703-.469 1-1.438 1.547-2.703 1.547-2.266 0-3.734-1.828-3.734-4.687 0-2.938 1.39-4.75 3.624-4.75.875 0 1.704.265 2.188.671.469.391.703.891.89 1.782zm0 0"/></symbol><symbol overflow="visible" id="n"><path style="stroke:none" d="M2.422-11.453H1.109V0h1.313zm0 0"/></symbol><symbol overflow="visible" id="o"><path style="stroke:none" d="M2.39-8.234H1.095V0H2.39zm0-3.22H1.079v1.642h1.313zm0 0"/></symbol><symbol overflow="visible" id="p"><path style="stroke:none" d="M1.188-8.234V0H2.5v-4.547c0-1.687.875-2.781 2.219-2.781 1.047 0 1.703.625 1.703 1.61V0h1.312v-6.219c0-1.36-1.046-2.265-2.609-2.265-1.234 0-2.063.5-2.719 1.625v-1.375zm0 0"/></symbol><symbol overflow="visible" id="q"><path style="stroke:none" d="M4.031-8.234h-1.36V-10.5H1.376v2.266H.25v1.062h1.125v6.234c0 .829.563 1.297 1.578 1.297.344 0 .625-.046 1.078-.125V-.844a3.642 3.642 0 0 1-.625.047c-.578 0-.734-.156-.734-.719v-5.656h1.36zm0 0"/></symbol><symbol overflow="visible" id="r"><path style="stroke:none" d="M1.5 0h4.422c2.875 0 4.656-2.172 4.656-5.734 0-3.547-1.781-5.72-4.656-5.72H1.5zm1.453-1.297v-8.86h2.703c2.266 0 3.469 1.516 3.469 4.423 0 2.921-1.203 4.437-3.469 4.437zm0 0"/></symbol><symbol overflow="visible" id="s"><path style="stroke:none" d="M7.469-5.469c-.063-.765-.203-1.265-.516-1.718C6.422-8 5.406-8.485 4.22-8.485 2-8.484.562-6.72.562-3.984.563-1.328 1.97.359 4.204.359c1.969 0 3.203-1.171 3.36-3.187h-1.33c-.203 1.312-.875 1.969-2 1.969-1.453 0-2.312-1.172-2.312-3.125 0-2.063.844-3.282 2.281-3.282 1.094 0 1.797.641 1.953 1.797zm0 0"/></symbol><symbol overflow="visible" id="t"><path style="stroke:none" d="M4.36-8.484C2.015-8.484.64-6.828.64-4.063.64-1.28 2.017.36 4.36.36 6.671.36 8.077-1.297 8.077-4c0-2.844-1.36-4.484-3.719-4.484zm0 1.218c1.484 0 2.359 1.204 2.359 3.235 0 1.953-.907 3.172-2.36 3.172C2.891-.86 2-2.08 2-4.063c0-1.984.89-3.203 2.36-3.203zm0 0"/></symbol><symbol overflow="visible" id="u"><path style="stroke:none" d="M7.875-11.453H6.562v4.234C6-8.047 5.141-8.484 4.033-8.484 1.89-8.484.5-6.766.5-4.141.5-1.344 1.86.375 4.078.375c1.14 0 1.89-.422 2.625-1.469V0h1.172zM4.25-7.25c1.406 0 2.313 1.25 2.313 3.234 0 1.907-.922 3.157-2.313 3.157-1.438 0-2.39-1.282-2.39-3.204 0-1.906.952-3.187 2.39-3.187zm0 0"/></symbol><symbol overflow="visible" id="v"><path style="stroke:none" d="M1.14-8.234V0h1.313v-4.266c0-1.14.266-1.906.86-2.375.437-.328.812-.437 1.78-.453v-1.343a3.67 3.67 0 0 0-.515-.047c-.844 0-1.547.546-2.219 1.75v-1.5zm0 0"/></symbol><symbol overflow="visible" id="x"><path style="stroke:none" d="M9.453-8.094v-.203c0-.656-.187-1.234-.562-1.781-.704-1.047-1.938-1.563-3.625-1.563-2.516 0-4.063 1.266-4.063 3.36 0 1.406.734 2.281 2.234 2.687l2.844.735c1.469.375 2.125.953 2.125 1.843 0 .61-.328 1.25-.828 1.594-.453.313-1.172.484-2.11.484-1.218 0-2.03-.296-2.593-.906-.438-.5-.656-1.062-.656-1.797H.844c.015 1 .203 1.672.61 2.266C2.218-.235 3.577.359 5.39.359 6.75.36 7.859.047 8.594-.53a3.455 3.455 0 0 0 1.265-2.625c0-1.422-.89-2.438-2.453-2.86l-2.86-.765c-1.39-.39-1.89-.828-1.89-1.703 0-1.157 1.031-1.938 2.563-1.938 1.828 0 2.828.828 2.86 2.328zm0 0"/></symbol><symbol overflow="visible" id="y"><path style="stroke:none" d="m4.547 0 3.156-8.234H6.22L3.89-1.563l-2.171-6.67h-1.5L3.125 0zm0 0"/></symbol><symbol overflow="visible" id="z"><path style="stroke:none" d="M2.953-5.219h6.25v-1.297h-6.25v-3.64h6.485v-1.297H1.5V0h8.234v-1.297h-6.78zm0 0"/></symbol><symbol overflow="visible" id="w"><path style="stroke:none" d="M2.813-11.875c.734.547 1.64 1.547 1.921 2.313 1.063.624 1.625-1.5-1.765-2.454zM.89-4.735C3.312-5.53 5.5-6.78 6.969-8.343v3h.203c.36 0 .797-.218.797-.328v-2.453c1.547.781 3.625 2.031 4.547 2.89 1.296.344 1.296-1.906-4.547-3.202v-.313h5.734c.219 0 .36-.063.39-.234-.5-.47-1.296-1.063-1.296-1.063l-.688.86H9.203a25.383 25.383 0 0 0 2.547-2.157c.297.063.516 0 .594-.125l-1.297-.765c-.594.906-1.516 2.171-2.297 3.046h-.781v-2.843c.36-.047.468-.172.5-.39l-1.5-.157v3.39H.859l.125.438h5.032C4.75-7.281 2.828-5.906.75-4.984zm13.078 1.61c.203 0 .36-.063.406-.234-.516-.47-1.328-1.11-1.328-1.11l-.735.907H7.61c.063-.313.094-.61.125-.954.329-.03.5-.187.532-.39L6.75-5.063a10.437 10.437 0 0 1-.172 1.5H.625l.14.438H6.5C6.016-1.375 4.687-.172.578.859l.125.297c5.063-.968 6.36-2.343 6.813-4.281h.171c1.047 2.453 3 3.672 5.97 4.328.109-.484.405-.812.827-.906L14.5.14c-2.969-.36-5.313-1.297-6.453-3.266zm0 0"/></symbol><symbol overflow="visible" id="A"><path style="stroke:none" d="M6.016-12.563c.718.626 1.562 1.704 1.75 2.563 1.093.781 1.859-1.594-1.579-2.672zm6.187 3H.672l.14.438h4.5C5.188-4.781 4.345-1.5.97 1.047l.125.187C4.328-.53 5.64-2.953 6.187-6.156h4.704c-.172 3.093-.532 5.453-.985 5.89-.172.141-.312.172-.625.172-.328 0-1.594-.11-2.297-.172l-.015.25c.64.11 1.36.266 1.61.454.233.124.296.406.296.718.688 0 1.297-.203 1.703-.593.719-.688 1.125-3.172 1.281-6.579.329-.046.516-.125.625-.234l-1.14-.984-.594.64h-4.5c.125-.797.203-1.64.266-2.531h7.437c.203 0 .36-.063.406-.234a30.525 30.525 0 0 0-1.406-1.141zm0 0"/></symbol><symbol overflow="visible" id="B"><path style="stroke:none" d="M1.781-12.219c.688.438 1.547 1.25 1.797 1.969 1.11.594 1.703-1.625-1.656-2.125zM.641-8.89c.656.407 1.421 1.141 1.656 1.766 1.078.61 1.64-1.547-1.5-1.906zm4.343-1.5C2.172-3.92 2.172-3.92 1.906-3.375c-.156.313-.203.328-.375.328H.86v.328c.329.031.532.063.735.219.343.219.437 1.406.234 2.922.031.484.203.75.484.75.5 0 .813-.39.844-1.031.047-1.25-.39-1.907-.39-2.579-.016-.39.078-.874.234-1.359.219-.781 1.563-4.531 2.25-6.515zm7.563 4.547H9.64v-3.14h3.734c.219 0 .36-.079.406-.235-.5-.469-1.297-1.094-1.297-1.094l-.718.891H9.64v-2.547c.375-.062.515-.219.562-.422l-1.531-.171v3.14H5.328l.11.438h3.234v3.14H4.328l.125.438h4.125c-.625 1.328-2.25 3.687-3.5 4.687-.11.078-.422.14-.422.14L5.203.813c.14-.046.25-.156.36-.312A116.42 116.42 0 0 0 12.5-.797c.328.61.594 1.219.719 1.75 1.187.922 1.906-1.812-2.36-4.547l-.187.094c.515.672 1.14 1.516 1.64 2.406-2.609.235-5.109.469-6.624.547C7.077-1.672 8.655-3.312 9.5-4.484c.297.046.5-.079.578-.204l-1.39-.718h5.484c.219 0 .375-.063.406-.235-.515-.484-1.328-1.109-1.328-1.109zm0 0"/></symbol><symbol overflow="visible" id="C"><path style="stroke:none" d="M7.828-6.672c-.016-1.844-1.219-2.875-3.36-2.875-2.14 0-3.546 1.125-3.546 2.844 0 1.469.75 2.156 2.937 2.672l1.375.343c1.016.25 1.422.61 1.422 1.282 0 .875-.86 1.453-2.156 1.453-.75 0-1.422-.219-1.797-.578-.265-.266-.36-.532-.469-1.219H.688C.75-.61 1.938.406 4.374.406c2.328 0 3.813-1.14 3.813-2.922 0-1.39-.766-2.171-2.61-2.593l-1.422-.329C2.97-5.702 2.47-6.125 2.47-6.766c0-.859.75-1.406 1.953-1.406 1.172 0 1.812.5 1.86 1.5zm0 0"/></symbol><symbol overflow="visible" id="D"><path style="stroke:none" d="M9.14-4.14c.016-1.329-.093-2.173-.328-2.844-.546-1.579-1.984-2.563-3.765-2.563-2.594 0-4.25 1.969-4.25 5.047C.797-1.437 2.39.406 5 .406c2.11 0 3.61-1.203 3.969-3.219H7.484c-.406 1.204-1.25 1.86-2.421 1.86-.922 0-1.704-.39-2.204-1.14-.375-.532-.515-1.079-.53-2.048zM2.376-5.345c.11-1.718 1.156-2.828 2.64-2.828 1.5 0 2.563 1.172 2.548 2.828zm0 0"/></symbol><symbol overflow="visible" id="E"><path style="stroke:none" d="M4.531-9.266H3v-2.546H1.547v2.546H.28v1.204h1.266v7c0 .937.625 1.453 1.781 1.453A6.1 6.1 0 0 0 4.53.266v-1.22a4.527 4.527 0 0 1-.703.048c-.64 0-.828-.172-.828-.797v-6.36H4.53zm0 0"/></symbol><symbol overflow="visible" id="F"><path style="stroke:none" d="M12.656-6.797h-5.39v1.438h3.937v2.75c-1.75 1.156-2.797 1.546-4.125 1.546-1.25 0-2.422-.484-3.172-1.296-.844-.907-1.375-2.47-1.375-4.047 0-3.157 1.813-5.235 4.531-5.235 1.97 0 3.375 1 3.72 2.657h1.687c-.438-2.61-2.438-4.125-5.39-4.125-1.563 0-2.845.421-3.86 1.25C1.75-10.625.906-8.625.906-6.313.906-2.39 3.328.391 6.734.391c.954 0 2.25-.282 3.313-.72.812-.343 1.406-.687 2.61-1.53zm0 0"/></symbol><symbol overflow="visible" id="G"><path style="stroke:none" d="M2.719-12.89H1.234V0H2.72zm0 0"/></symbol><symbol overflow="visible" id="H"><path style="stroke:none" d="M4.89-9.547c-2.623 0-4.17 1.86-4.17 4.969C.719-1.438 2.266.39 4.89.39 7.5.39 9.094-1.453 9.094-4.5c0-3.203-1.531-5.047-4.203-5.047zm0 1.375c1.673 0 2.673 1.344 2.673 3.64 0 2.188-1.032 3.563-2.672 3.563-1.625 0-2.641-1.375-2.641-3.61 0-2.218 1.016-3.593 2.64-3.593zm0 0"/></symbol><symbol overflow="visible" id="I"><path style="stroke:none" d="M1.047-12.89V0h1.328v-1.188C3-.14 4 .407 5.313.407c2.421 0 4.015-1.984 4.015-5.062 0-3.032-1.515-4.89-3.969-4.89-1.265 0-2.156.468-2.859 1.53v-4.875zm4.047 4.734c1.64 0 2.703 1.422 2.703 3.64 0 2.11-1.094 3.547-2.703 3.547C3.53-.969 2.5-2.375 2.5-4.579c0-2.155 1.031-3.577 2.594-3.577zm0 0"/></symbol><symbol overflow="visible" id="J"><path style="stroke:none" d="M9.547-.86c-.156.032-.219.032-.328.032-.5 0-.797-.25-.797-.719v-5.437c0-1.672-1.188-2.563-3.469-2.563-1.312 0-2.375.36-3.031 1.031-.453.485-.64 1.032-.688 2h1.5c.11-1.14.782-1.656 2.157-1.656 1.343 0 2.078.485 2.078 1.406v.375c0 .625-.375.875-1.532 1.032-2.03.25-2.343.296-2.875.515C1.407-4.39.829-3.562.829-2.328.828-.641 2 .406 3.875.406c1.172 0 2.094-.39 3.14-1.36.11.954.563 1.36 1.516 1.36.328 0 .5-.031 1.016-.156zM6.969-2.89c0 .484-.14.78-.578 1.187a3.235 3.235 0 0 1-2.204.828c-1.14 0-1.828-.563-1.828-1.484 0-.97.641-1.47 2.235-1.688 1.578-.219 1.89-.297 2.375-.531zm0 0"/></symbol><symbol overflow="visible" id="K"><path style="stroke:none" d="M1.281-9.266V0H2.75v-4.813c0-1.265.313-2.14.969-2.656.5-.375.922-.484 2-.5v-1.515c-.25-.032-.39-.063-.578-.063-.954 0-1.735.625-2.5 1.969v-1.688zm0 0"/></symbol><symbol overflow="visible" id="L"><path style="stroke:none" d="M8.86-12.89H7.374v4.765C6.749-9.047 5.78-9.547 4.53-9.547c-2.406 0-3.968 1.938-3.968 4.89 0 3.141 1.53 5.063 4.03 5.063 1.282 0 2.126-.453 2.954-1.625V0h1.312zM4.78-8.157c1.594 0 2.594 1.406 2.594 3.64C7.374-2.376 6.358-.97 4.78-.97c-1.61 0-2.687-1.437-2.687-3.61 0-2.14 1.078-3.577 2.687-3.577zm0 0"/></symbol><symbol overflow="visible" id="M"><path style="stroke:none" d="M1.39-9.266V0h1.47v-5.828c0-1.328.968-2.422 2.187-2.422 1.078 0 1.703.688 1.703 1.86V0h1.5v-5.828c0-1.328.969-2.422 2.156-2.422 1.094 0 1.719.688 1.719 1.86V0h1.484v-6.953c0-1.672-.937-2.594-2.687-2.594-1.219 0-1.953.36-2.844 1.422-.531-.984-1.297-1.422-2.5-1.422-1.234 0-2.11.5-2.828 1.594v-1.313zm0 0"/></symbol></defs><path class="module-box" data-tstyle="module-box" d="M0 0h-198v288h396V0zm0 0" transform="matrix(1 0 0 -1 199.75 289.75)"/><g class="font-f" data-tstyle="font-f"><use xlink:href="#a" x="160.45" y="22.25"/><use xlink:href="#b" x="172.945" y="22.25"/><use xlink:href="#c" x="181.33" y="22.25"/><use xlink:href="#d" x="189.715" y="22.25"/><use xlink:href="#e" x="198.1" y="22.25"/><use xlink:href="#f" x="208.9" y="22.25"/><use xlink:href="#g" x="217.285" y="22.25"/><use xlink:href="#c" x="225.67" y="22.25"/><use xlink:href="#h" x="234.055" y="22.25"/></g><path class="class-box" data-tstyle="class-box" d="M0 0c-1.7 0-3.302-1.698-3.302-3.402v-29.296C-3.302-34.3-1.7-36 0-36h137.3c1.7 0 3.398 1.699 3.398 3.3v29.297c0 1.704-1.699 3.403-3.398 3.403zm0 0" transform="matrix(1 0 0 -1 215.45 70.95)"/><g class="font-e" data-tstyle="font-e"><use xlink:href="#i" x="243.75" y="94.65"/><use xlink:href="#j" x="257.046" y="94.65"/><use xlink:href="#k" x="265.942" y="94.65"/><use xlink:href="#l" x="274.742" y="94.65"/><use xlink:href="#m" x="283.638" y="94.65"/><use xlink:href="#n" x="295.142" y="94.65"/><use xlink:href="#o" x="298.726" y="94.65"/><use xlink:href="#k" x="302.31" y="94.65"/><use xlink:href="#p" x="311.206" y="94.65"/><use xlink:href="#q" x="320.102" y="94.65"/></g><path class="d-line" data-tstyle="d-line" d="M0 .002h-14.398" transform="matrix(1 0 0 -1 199.75 178.15)"/><path class="d-line" data-tstyle="d-line" d="M0 .002h-14.4" transform="matrix(1 0 0 -1 170.95 178.15)"/><path class="d-line" data-tstyle="d-line" d="M-.002.002H-14.4" transform="matrix(1 0 0 -1 142.15 178.15)"/><path class="d-line" data-tstyle="d-line" d="M.002.002h-14.403" transform="matrix(1 0 0 -1 113.35 178.15)"/><path class="d-line" data-tstyle="d-line" d="M0 .002h-14.402" transform="matrix(1 0 0 -1 84.55 178.15)"/><path class="d-line" data-tstyle="d-line" d="M0 .002h-14.398" transform="matrix(1 0 0 -1 55.75 178.15)"/><path class="d-line" data-tstyle="d-line" d="M0 .002h-7.2V7.2" transform="matrix(1 0 0 -1 26.95 178.15)"/><path class="d-line" data-tstyle="d-line" d="M0 0v14.402" transform="matrix(1 0 0 -1 19.75 156.55)"/><path class="d-line" data-tstyle="d-line" d="M0 0v14.398" transform="matrix(1 0 0 -1 19.75 127.75)"/><path class="d-line" data-tstyle="d-line" d="M0 0v14.4" transform="matrix(1 0 0 -1 19.75 98.95)"/><path class="d-line" data-tstyle="d-line" d="M0 .002V14.4" transform="matrix(1 0 0 -1 19.75 70.15)"/><path class="d-line" data-tstyle="d-line" d="M0-.002V3.6h10.8" transform="matrix(1 0 0 -1 19.75 41.35)"/><path class="d-line" data-tstyle="d-line" d="M0 0h14.402" transform="matrix(1 0 0 -1 44.95 37.75)"/><path class="d-line" data-tstyle="d-line" d="M0 0h14.398" transform="matrix(1 0 0 -1 73.75 37.75)"/><path class="d-line" data-tstyle="d-line" d="M0 0h14.4" transform="matrix(1 0 0 -1 102.55 37.75)"/><path class="d-line" data-tstyle="d-line" d="M.002 0H14.4" transform="matrix(1 0 0 -1 131.35 37.75)"/><path class="d-line" data-tstyle="d-line" d="M-.002 0h14.403" transform="matrix(1 0 0 -1 160.15 37.75)"/><path class="d-line" data-tstyle="d-line" d="M0 0h14.402" transform="matrix(1 0 0 -1 188.95 37.75)"/><path class="d-line" data-tstyle="d-line" d="M0 0h14.398" transform="matrix(1 0 0 -1 217.75 37.75)"/><path class="d-line" data-tstyle="d-line" d="M0 0h14.4" transform="matrix(1 0 0 -1 246.55 37.75)"/><path class="d-line" data-tstyle="d-line" d="M.002 0H14.4" transform="matrix(1 0 0 -1 275.35 37.75)"/><path class="d-line" data-tstyle="d-line" d="M-.002 0h14.403" transform="matrix(1 0 0 -1 304.15 37.75)"/><path class="d-line" data-tstyle="d-line" d="M0 0h14.402" transform="matrix(1 0 0 -1 332.95 37.75)"/><path class="d-line" data-tstyle="d-line" d="M0 0h14.398" transform="matrix(1 0 0 -1 361.75 37.75)"/><path class="d-line" data-tstyle="d-line" d="M0 0v-14.4" transform="matrix(1 0 0 -1 379.75 48.55)"/><path class="d-line" data-tstyle="d-line" d="M0-.002V-14.4" transform="matrix(1 0 0 -1 379.75 77.35)"/><path class="d-line" data-tstyle="d-line" d="M0 .002v-14.403" transform="matrix(1 0 0 -1 379.75 106.15)"/><path class="d-line" data-tstyle="d-line" d="M0 0v-14.402" transform="matrix(1 0 0 -1 379.75 134.95)"/><path class="d-line" data-tstyle="d-line" d="M0 0v-14.398" transform="matrix(1 0 0 -1 379.75 163.75)"/><path class="d-line" data-tstyle="d-line" d="M.002.002h-14.403" transform="matrix(1 0 0 -1 365.35 178.15)"/><path class="d-line" data-tstyle="d-line" d="M0 .002h-14.402" transform="matrix(1 0 0 -1 336.55 178.15)"/><path class="d-line" data-tstyle="d-line" d="M0 .002h-14.398" transform="matrix(1 0 0 -1 307.75 178.15)"/><path class="d-line" data-tstyle="d-line" d="M0 .002h-14.4" transform="matrix(1 0 0 -1 278.95 178.15)"/><path class="d-line" data-tstyle="d-line" d="M-.002.002H-14.4" transform="matrix(1 0 0 -1 250.15 178.15)"/><path class="d-line" data-tstyle="d-line" d="M.002.002h-14.403" transform="matrix(1 0 0 -1 221.35 178.15)"/><path class="class-box" data-tstyle="class-box" d="M.002 0c-1.704 0-3.403-1.698-3.403-3.402v-29.296C-3.4-34.3-1.7-36 .002-36h137.296c1.602 0 3.301 1.699 3.301 3.3v29.297c0 1.704-1.699 3.403-3.3 3.403zm0 0" transform="matrix(1 0 0 -1 46.85 70.95)"/><g class="font-e" data-tstyle="font-e"><use xlink:href="#i" x="65.35" y="94.65"/><use xlink:href="#j" x="78.742" y="94.65"/><use xlink:href="#k" x="87.542" y="94.65"/><use xlink:href="#l" x="96.438" y="94.65"/><use xlink:href="#r" x="105.334" y="94.65"/><use xlink:href="#k" x="116.838" y="94.65"/><use xlink:href="#s" x="125.734" y="94.65"/><use xlink:href="#t" x="133.638" y="94.65"/><use xlink:href="#u" x="142.534" y="94.65"/><use xlink:href="#k" x="151.43" y="94.65"/><use xlink:href="#v" x="160.326" y="94.65"/></g><g class="font-d" data-tstyle="font-d"><use xlink:href="#w" x="354.65" y="58.064"/></g><path class="class-box" data-tstyle="class-box" d="M0 0c-1.698 0-3.402-1.698-3.402-3.402v-29.296C-3.402-34.3-1.698-36 .001-36h137.3c1.598 0 3.297 1.699 3.297 3.3v29.297c0 1.704-1.699 3.403-3.296 3.403zm0 0" transform="matrix(1 0 0 -1 215.55 124.95)"/><g class="font-e" data-tstyle="font-e"><use xlink:href="#i" x="240.65" y="148.65"/><use xlink:href="#j" x="253.946" y="148.65"/><use xlink:href="#k" x="262.842" y="148.65"/><use xlink:href="#l" x="271.738" y="148.65"/><use xlink:href="#x" x="280.634" y="148.65"/><use xlink:href="#k" x="291.226" y="148.65"/><use xlink:href="#v" x="300.122" y="148.65"/><use xlink:href="#y" x="305.914" y="148.65"/><use xlink:href="#k" x="313.514" y="148.65"/><use xlink:href="#v" x="322.314" y="148.65"/></g><path class="class-box" data-tstyle="class-box" d="M.002 0c-1.704 0-3.403-1.698-3.403-3.402v-29.296C-3.4-34.3-1.7-36 .002-36h137.296c1.704 0 3.403 1.699 3.403 3.3v29.297c0 1.704-1.7 3.403-3.403 3.403zm0 0" transform="matrix(1 0 0 -1 46.85 124.95)"/><g class="font-e" data-tstyle="font-e"><use xlink:href="#i" x="65.85" y="148.65"/><use xlink:href="#j" x="79.146" y="148.65"/><use xlink:href="#k" x="88.042" y="148.65"/><use xlink:href="#l" x="96.842" y="148.65"/><use xlink:href="#z" x="105.738" y="148.65"/><use xlink:href="#p" x="116.426" y="148.65"/><use xlink:href="#s" x="125.322" y="148.65"/><use xlink:href="#t" x="133.226" y="148.65"/><use xlink:href="#u" x="142.122" y="148.65"/><use xlink:href="#k" x="151.018" y="148.65"/><use xlink:href="#v" x="159.914" y="148.65"/></g><path class="d-line" data-tstyle="d-line" d="M0 0h-14.398" transform="matrix(1 0 0 -1 199.75 278.95)"/><path class="d-line" data-tstyle="d-line" d="M0 0h-14.4" transform="matrix(1 0 0 -1 170.95 278.95)"/><path class="d-line" data-tstyle="d-line" d="M-.002 0H-14.4" transform="matrix(1 0 0 -1 142.15 278.95)"/><path class="d-line" data-tstyle="d-line" d="M.002 0h-14.403" transform="matrix(1 0 0 -1 113.35 278.95)"/><path class="d-line" data-tstyle="d-line" d="M0 0h-14.402" transform="matrix(1 0 0 -1 84.55 278.95)"/><path class="d-line" data-tstyle="d-line" d="M0 0h-14.398" transform="matrix(1 0 0 -1 55.75 278.95)"/><path class="d-line" data-tstyle="d-line" d="M0 0h-7.2v7.2" transform="matrix(1 0 0 -1 26.95 278.95)"/><path class="d-line" data-tstyle="d-line" d="M0-.002v14.403" transform="matrix(1 0 0 -1 19.75 257.35)"/><path class="d-line" data-tstyle="d-line" d="M0 0v14.402" transform="matrix(1 0 0 -1 19.75 228.55)"/><path class="d-line" data-tstyle="d-line" d="M0 0v3.602h10.8" transform="matrix(1 0 0 -1 19.75 199.75)"/><path class="d-line" data-tstyle="d-line" d="M0 .002h14.402" transform="matrix(1 0 0 -1 44.95 196.15)"/><path class="d-line" data-tstyle="d-line" d="M0 .002h14.398" transform="matrix(1 0 0 -1 73.75 196.15)"/><path class="d-line" data-tstyle="d-line" d="M0 .002h14.4" transform="matrix(1 0 0 -1 102.55 196.15)"/><path class="d-line" data-tstyle="d-line" d="M.002.002H14.4" transform="matrix(1 0 0 -1 131.35 196.15)"/><path class="d-line" data-tstyle="d-line" d="M-.002.002h14.403" transform="matrix(1 0 0 -1 160.15 196.15)"/><path class="d-line" data-tstyle="d-line" d="M0 .002h14.402" transform="matrix(1 0 0 -1 188.95 196.15)"/><path class="d-line" data-tstyle="d-line" d="M0 .002h14.398" transform="matrix(1 0 0 -1 217.75 196.15)"/><path class="d-line" data-tstyle="d-line" d="M0 .002h14.4" transform="matrix(1 0 0 -1 246.55 196.15)"/><path class="d-line" data-tstyle="d-line" d="M.002.002H14.4" transform="matrix(1 0 0 -1 275.35 196.15)"/><path class="d-line" data-tstyle="d-line" d="M-.002.002h14.403" transform="matrix(1 0 0 -1 304.15 196.15)"/><path class="d-line" data-tstyle="d-line" d="M0 .002h14.402" transform="matrix(1 0 0 -1 332.95 196.15)"/><path class="d-line" data-tstyle="d-line" d="M0 .002h14.398" transform="matrix(1 0 0 -1 361.75 196.15)"/><path class="d-line" data-tstyle="d-line" d="M0 0v-14.402" transform="matrix(1 0 0 -1 379.75 206.95)"/><path class="d-line" data-tstyle="d-line" d="M0 0v-14.398" transform="matrix(1 0 0 -1 379.75 235.75)"/><path class="d-line" data-tstyle="d-line" d="M0 0v-14.4" transform="matrix(1 0 0 -1 379.75 264.55)"/><path class="d-line" data-tstyle="d-line" d="M.002 0h-14.403" transform="matrix(1 0 0 -1 365.35 278.95)"/><path class="d-line" data-tstyle="d-line" d="M0 0h-14.402" transform="matrix(1 0 0 -1 336.55 278.95)"/><path class="d-line" data-tstyle="d-line" d="M0 0h-14.398" transform="matrix(1 0 0 -1 307.75 278.95)"/><path class="d-line" data-tstyle="d-line" d="M0 0h-14.4" transform="matrix(1 0 0 -1 278.95 278.95)"/><path class="d-line" data-tstyle="d-line" d="M-.002 0H-14.4" transform="matrix(1 0 0 -1 250.15 278.95)"/><path class="d-line" data-tstyle="d-line" d="M.002 0h-14.403" transform="matrix(1 0 0 -1 221.35 278.95)"/><g class="font-d" data-tstyle="font-d"><use xlink:href="#A" x="338.15" y="216.464"/><use xlink:href="#B" x="353.15" y="216.464"/></g><path class="func-box" data-tstyle="func-box" data-tstyle="func-box" d="M0 0h-72v36H72V0zm0 0" transform="matrix(1 0 0 -1 115.45 264.55)"/><g class="font-e" data-tstyle="font-e"><use xlink:href="#C" x="77.65" y="253.15"/><use xlink:href="#D" x="86.65" y="253.15"/><use xlink:href="#E" x="96.442" y="253.15"/><use xlink:href="#F" x="101.446" y="253.15"/><use xlink:href="#G" x="115.522" y="253.15"/><use xlink:href="#H" x="119.428" y="253.15"/><use xlink:href="#I" x="129.436" y="253.15"/><use xlink:href="#J" x="139.444" y="253.15"/><use xlink:href="#G" x="149.344" y="253.15"/></g><path class="func-box" data-tstyle="func-box" data-tstyle="func-box" d="M.002 0h-72v36h144V0zm0 0" transform="matrix(1 0 0 -1 284.85 264.55)"/><g class="font-e" data-tstyle="font-e"><use xlink:href="#K" x="254.55" y="253.15"/><use xlink:href="#D" x="260.454" y="253.15"/><use xlink:href="#J" x="270.354" y="253.15"/><use xlink:href="#L" x="280.362" y="253.15"/><use xlink:href="#M" x="290.37" y="253.15"/><use xlink:href="#D" x="305.364" y="253.15"/></g></svg>