<?xml version="1.0" encoding="UTF-8"?><svg id="graph-div" xmlns="http://www.w3.org/2000/svg" xmlns:xlink="http://www.w3.org/1999/xlink" style="max-width: 399.5px; height:auto; max-height: 291.5px;" width="100%" viewBox="0 0 399.5 291.5" version="1.1"><style>#graph-div .stk-n{stroke:none}#graph-div .font-d{fill:#555;fill-opacity:1}#graph-div .font-e{fill:#333;fill-opacity:1}#graph-div .font-f{fill:#000;fill-opacity:1}#graph-div .module-box{fill-rule:evenodd;fill:#FFFFDE;fill-opacity:1;stroke-width:1.5;stroke-linecap:butt;stroke-linejoin:round;stroke:#aaaa33;stroke-opacity:1;stroke-miterlimit:10}#graph-div .class-box{fill-rule:evenodd;fill:#ECECFF;fill-opacity:1;stroke-width:1.5;stroke-linecap:butt;stroke-linejoin:round;stroke:#9370DB;stroke-opacity:1;stroke-miterlimit:10}#graph-div .func-box {fill-rule:evenodd;fill:#eee;fill-opacity:1;stroke-width:1.5;stroke-linecap:butt;stroke-linejoin:round;stroke:#999;stroke-opacity:1;stroke-miterlimit:10}#graph-div .d-line{fill:none;stroke-width:1.5;stroke-linecap:butt;stroke-linejoin:round;stroke:#999;stroke-opacity:1;stroke-miterlimit:10}html[data-theme='dark'] #graph-div .font-d{fill:#ddd}html[data-theme='dark'] #graph-div .font-e{fill:#eee}html[data-theme='dark'] #graph-div .font-f{fill:#fff}html[data-theme='dark'] #graph-div .module-box{fill:#474848;stroke:#fff}html[data-theme='dark'] #graph-div .class-box{fill:#241b42;stroke:#81b1db}html[data-theme='dark'] #graph-div .func-box {fill:#1f2020;stroke:#ddd}html[data-theme='dark'] #graph-div .d-line{stroke:#777}</style><defs><symbol overflow="visible" id="a"><path class="stk-n" d="M1.156-7.719V0h1.235v-4.86c0-1.109.796-2.015 1.812-2.015.89 0 1.422.578 1.422 1.547V0h1.25v-4.86c0-1.109.813-2.015 1.797-2.015.906 0 1.437.578 1.437 1.547V0h1.235v-5.797c0-1.39-.781-2.156-2.235-2.156-1.03 0-1.64.297-2.375 1.187-.453-.828-1.078-1.187-2.078-1.187-1.047 0-1.765.406-2.36 1.328v-1.094zm0 0"/></symbol><symbol overflow="visible" id="b"><path class="stk-n" d="M.875 3.203h1.219V-.812C2.75-.016 3.469.327 4.469.327c2 0 3.297-1.61 3.297-4.062 0-2.594-1.266-4.22-3.297-4.22-1.063 0-1.969.516-2.453 1.391V-7.72H.875zm3.39-10C5.61-6.797 6.5-5.609 6.5-3.766c0 1.75-.906 2.938-2.234 2.938C2.937-.828 2.094-2 2.094-3.813c0-1.812.86-2.984 2.172-2.984zm0 0"/></symbol><symbol overflow="visible" id="c"><path class="stk-n" d="M7.625-3.453c.016-1.11-.078-1.813-.281-2.36-.453-1.328-1.657-2.14-3.14-2.14-2.157 0-3.548 1.64-3.548 4.203C.656-1.203 2 .344 4.172.344c1.75 0 3-1 3.297-2.688H6.234C5.891-1.328 5.188-.797 4.22-.797c-.766 0-1.407-.328-1.828-.937-.329-.454-.438-.907-.454-1.72zm-5.64-1c.077-1.422.952-2.36 2.202-2.36s2.125.985 2.11 2.36zm0 0"/></symbol><symbol overflow="visible" id="d"><path class="stk-n" d="M6.156-7.719v1.125c-.625-.937-1.375-1.36-2.36-1.36-1.968 0-3.28 1.72-3.28 4.235 0 1.266.328 2.297.968 3.031C2.063-.046 2.875.345 3.688.345c.968 0 1.671-.422 2.343-1.39v.405c0 1.032-.14 1.657-.437 2.094-.328.453-.953.719-1.703.719-.547 0-1.063-.125-1.391-.39-.297-.204-.422-.438-.469-.891H.766c.14 1.453 1.28 2.312 3.062 2.312 1.156 0 2.14-.375 2.656-.984.579-.703.813-1.656.813-3.485v-6.453zm-2.218.89c1.312 0 2.093 1.126 2.093 3.063 0 1.844-.797 2.97-2.093 2.97-1.344 0-2.157-1.141-2.157-3.016 0-1.86.828-3.016 2.157-3.016zm0 0"/></symbol><symbol overflow="visible" id="e"><path class="stk-n" d="M9.86-7.406c-.438-2.375-1.797-3.516-4.141-3.516-1.453 0-2.61.453-3.407 1.344-.984 1.078-1.5 2.61-1.5 4.344 0 1.75.547 3.28 1.563 4.312C3.188-.062 4.25.344 5.656.344c2.625 0 4.094-1.422 4.422-4.266H8.672c-.125.719-.25 1.172-.469 1.61-.437.937-1.344 1.437-2.531 1.437-2.125 0-3.5-1.703-3.5-4.39 0-2.75 1.297-4.438 3.39-4.438.829 0 1.61.234 2.063.625.438.36.656.828.813 1.672zm0 0"/></symbol><symbol overflow="visible" id="f"><path class="stk-n" d="M4.078-7.953c-2.187 0-3.484 1.547-3.484 4.14C.594-1.203 1.89.329 4.078.329c2.172 0 3.5-1.547 3.5-4.078 0-2.672-1.281-4.203-3.5-4.203zm0 1.14c1.39 0 2.219 1.125 2.219 3.032 0 1.828-.86 2.969-2.219 2.969-1.36 0-2.203-1.141-2.203-3 0-1.86.844-3 2.203-3zm0 0"/></symbol><symbol overflow="visible" id="g"><path class="stk-n" d="M7.375-10.734H6.156v3.968c-.531-.78-1.343-1.187-2.375-1.187C1.766-7.953.47-6.343.47-3.891.47-1.266 1.735.344 3.83.344c1.062 0 1.765-.39 2.452-1.36V0h1.094zm-3.39 3.937c1.328 0 2.171 1.172 2.171 3.031 0 1.782-.86 2.954-2.172 2.954-1.343 0-2.25-1.204-2.25-3 0-1.782.907-2.985 2.25-2.985zm0 0"/></symbol><symbol overflow="visible" id="h"><path class="stk-n" d="M1.063-7.719V0h1.234v-4c0-1.063.25-1.797.812-2.219.407-.328.766-.406 1.657-.422v-1.265a2.946 2.946 0 0 0-.47-.047c-.796 0-1.468.516-2.093 1.64v-1.406zm0 0"/></symbol><symbol overflow="visible" id="w"><path class="stk-n" d="M7-5.125c-.063-.719-.188-1.188-.469-1.61-.515-.765-1.468-1.218-2.578-1.218-2.078 0-3.422 1.656-3.422 4.219C.531-1.25 1.844.328 3.937.328c1.86 0 3-1.094 3.157-2.984h-1.25C5.656-1.422 5.03-.812 3.969-.812c-1.36 0-2.172-1.094-2.172-2.922 0-1.938.797-3.079 2.14-3.079 1.032 0 1.688.61 1.844 1.688zm0 0"/></symbol><symbol overflow="visible" id="x"><path class="stk-n" d="M2.266-10.734H1.03V0h1.235zm0 0"/></symbol><symbol overflow="visible" id="y"><path class="stk-n" d="M7.953-.719c-.125.031-.187.031-.266.031-.421 0-.671-.218-.671-.609v-4.516c0-1.406-.985-2.14-2.891-2.14-1.094 0-1.984.297-2.516.86-.375.405-.546.859-.578 1.655h1.25c.094-.937.64-1.375 1.797-1.375 1.11 0 1.734.407 1.734 1.172v.313c0 .531-.328.734-1.28.86-1.704.202-1.954.25-2.407.437C1.172-3.656.687-2.97.687-1.938.688-.546 1.672.345 3.22.345c.984 0 1.765-.328 2.625-1.14.093.796.468 1.14 1.265 1.14.266 0 .422-.031.844-.14zm-2.14-1.703c0 .406-.125.672-.485 1A2.66 2.66 0 0 1 3.5-.734c-.969 0-1.531-.47-1.531-1.235 0-.812.531-1.218 1.86-1.406 1.312-.188 1.577-.234 1.983-.438zm0 0"/></symbol><symbol overflow="visible" id="z"><path class="stk-n" d="M6.531-5.563c-.015-1.53-1.031-2.39-2.812-2.39S.766-7.016.766-5.578c0 1.219.625 1.781 2.437 2.219l1.156.28c.844.22 1.188.517 1.188 1.063 0 .735-.719 1.22-1.797 1.22-.625 0-1.188-.173-1.5-.485-.219-.219-.297-.438-.39-1.016H.561C.625-.516 1.625.343 3.642.343c1.937 0 3.187-.952 3.187-2.437 0-1.156-.64-1.812-2.172-2.172L3.47-4.53c-1-.219-1.406-.563-1.406-1.11 0-.718.624-1.171 1.624-1.171.985 0 1.5.421 1.547 1.25zm0 0"/></symbol><symbol overflow="visible" id="D"><path class="stk-n" d="M3.781-7.719H2.5v-2.125H1.297v2.125H.234v1h1.063V-.89c0 .782.516 1.22 1.484 1.22.313 0 .578-.032 1-.11V-.797a3.266 3.266 0 0 1-.594.047c-.53 0-.687-.156-.687-.672v-5.297h1.281zm0 0"/></symbol><symbol overflow="visible" id="E"><path class="stk-n" d="M1.11-10.734V0h1.218v-4.266c0-1.562.828-2.609 2.094-2.609 1 0 1.594.578 1.594 1.516V0h1.218v-5.828c0-1.313-.937-2.125-2.421-2.125-1.11 0-1.766.344-2.485 1.281v-4.062zm0 0"/></symbol><symbol overflow="visible" id="i"><path class="stk-n" d="m7.469 0 3.234-9.61V0h1.375v-11.453h-2.015L6.719-1.484l-3.407-9.97H1.297V0h1.375v-9.61L5.937 0zm0 0"/></symbol><symbol overflow="visible" id="j"><path class="stk-n" d="M.922 3.422h1.312V-.86C2.922-.016 3.704.359 4.766.359 6.89.36 8.28-1.359 8.28-3.984c0-2.766-1.36-4.5-3.515-4.5-1.141 0-2.094.546-2.625 1.468v-1.218H.92zM4.547-7.25c1.437 0 2.375 1.266 2.375 3.234 0 1.875-.953 3.141-2.375 3.141-1.406 0-2.313-1.25-2.313-3.188 0-1.937.922-3.187 2.313-3.187zm0 0"/></symbol><symbol overflow="visible" id="k"><path class="stk-n" d="M8.125-3.688c.016-1.171-.078-1.921-.281-2.515-.5-1.406-1.782-2.281-3.36-2.281C2.172-8.484.704-6.734.704-4c0 2.719 1.421 4.375 3.75 4.375C6.312.375 7.64-.703 7.968-2.5H6.656C6.281-1.422 5.531-.844 4.5-.844c-.813 0-1.516-.36-1.953-1.015-.344-.485-.469-.954-.485-1.829zM2.109-4.75c.094-1.516 1.032-2.516 2.36-2.516 1.328 0 2.265 1.047 2.25 2.516zm0 0"/></symbol><symbol overflow="visible" id="l"><path class="stk-n" d="M6.563-8.234v1.187c-.657-.984-1.454-1.437-2.516-1.437-2.094 0-3.5 1.828-3.5 4.515 0 1.344.344 2.453 1.031 3.235.61.687 1.5 1.109 2.36 1.109 1.015 0 1.78-.453 2.5-1.5v.438c0 1.109-.157 1.78-.47 2.234-.359.484-1.03.766-1.827.766-.579 0-1.11-.141-1.47-.407-.312-.218-.452-.468-.515-.968H.812C.954 2.5 2.173 3.421 4.079 3.421c1.234 0 2.297-.39 2.828-1.047.625-.766.875-1.781.875-3.719v-6.89zm-2.375.953c1.406 0 2.25 1.203 2.25 3.265 0 1.97-.86 3.172-2.25 3.172-1.422 0-2.282-1.219-2.282-3.219 0-1.984.875-3.218 2.282-3.218zm0 0"/></symbol><symbol overflow="visible" id="m"><path class="stk-n" d="M10.516-7.906c-.47-2.532-1.907-3.735-4.422-3.735-1.547 0-2.782.47-3.625 1.422-1.047 1.14-1.61 2.781-1.61 4.64 0 1.86.594 3.5 1.672 4.61.875.906 2 1.344 3.5 1.344 2.797 0 4.375-1.531 4.719-4.547h-1.5c-.125.75-.281 1.25-.5 1.703-.469 1-1.438 1.547-2.703 1.547-2.266 0-3.734-1.828-3.734-4.687 0-2.938 1.39-4.75 3.624-4.75.875 0 1.704.265 2.188.671.469.391.703.891.89 1.782zm0 0"/></symbol><symbol overflow="visible" id="n"><path class="stk-n" d="M2.422-11.453H1.109V0h1.313zm0 0"/></symbol><symbol overflow="visible" id="o"><path class="stk-n" d="M2.39-8.234H1.095V0H2.39zm0-3.22H1.079v1.642h1.313zm0 0"/></symbol><symbol overflow="visible" id="p"><path class="stk-n" d="M1.188-8.234V0H2.5v-4.547c0-1.687.875-2.781 2.219-2.781 1.047 0 1.703.625 1.703 1.61V0h1.312v-6.219c0-1.36-1.046-2.265-2.609-2.265-1.234 0-2.063.5-2.719 1.625v-1.375zm0 0"/></symbol><symbol overflow="visible" id="q"><path class="stk-n" d="M4.031-8.234h-1.36V-10.5H1.376v2.266H.25v1.062h1.125v6.234c0 .829.563 1.297 1.578 1.297.344 0 .625-.046 1.078-.125V-.844a3.642 3.642 0 0 1-.625.047c-.578 0-.734-.156-.734-.719v-5.656h1.36zm0 0"/></symbol><symbol overflow="visible" id="r"><path class="stk-n" d="M1.5 0h4.422c2.875 0 4.656-2.172 4.656-5.734 0-3.547-1.781-5.72-4.656-5.72H1.5zm1.453-1.297v-8.86h2.703c2.266 0 3.469 1.516 3.469 4.423 0 2.921-1.203 4.437-3.469 4.437zm0 0"/></symbol><symbol overflow="visible" id="s"><path class="stk-n" d="M7.469-5.469c-.063-.765-.203-1.265-.516-1.718C6.422-8 5.406-8.485 4.22-8.485 2-8.484.562-6.72.562-3.984.563-1.328 1.97.359 4.204.359c1.969 0 3.203-1.171 3.36-3.187h-1.33c-.203 1.312-.875 1.969-2 1.969-1.453 0-2.312-1.172-2.312-3.125 0-2.063.844-3.282 2.281-3.282 1.094 0 1.797.641 1.953 1.797zm0 0"/></symbol><symbol overflow="visible" id="t"><path class="stk-n" d="M4.36-8.484C2.015-8.484.64-6.828.64-4.063.64-1.28 2.017.36 4.36.36 6.671.36 8.077-1.297 8.077-4c0-2.844-1.36-4.484-3.719-4.484zm0 1.218c1.484 0 2.359 1.204 2.359 3.235 0 1.953-.907 3.172-2.36 3.172C2.891-.86 2-2.08 2-4.063c0-1.984.89-3.203 2.36-3.203zm0 0"/></symbol><symbol overflow="visible" id="u"><path class="stk-n" d="M7.875-11.453H6.562v4.234C6-8.047 5.141-8.484 4.033-8.484 1.89-8.484.5-6.766.5-4.141.5-1.344 1.86.375 4.078.375c1.14 0 1.89-.422 2.625-1.469V0h1.172zM4.25-7.25c1.406 0 2.313 1.25 2.313 3.234 0 1.907-.922 3.157-2.313 3.157-1.438 0-2.39-1.282-2.39-3.204 0-1.906.952-3.187 2.39-3.187zm0 0"/></symbol><symbol overflow="visible" id="v"><path class="stk-n" d="M1.14-8.234V0h1.313v-4.266c0-1.14.266-1.906.86-2.375.437-.328.812-.437 1.78-.453v-1.343a3.67 3.67 0 0 0-.515-.047c-.844 0-1.547.546-2.219 1.75v-1.5zm0 0"/></symbol><symbol overflow="visible" id="A"><path class="stk-n" d="M9.453-8.094v-.203c0-.656-.187-1.234-.562-1.781-.704-1.047-1.938-1.563-3.625-1.563-2.516 0-4.063 1.266-4.063 3.36 0 1.406.734 2.281 2.234 2.687l2.844.735c1.469.375 2.125.953 2.125 1.843 0 .61-.328 1.25-.828 1.594-.453.313-1.172.484-2.11.484-1.218 0-2.03-.296-2.593-.906-.438-.5-.656-1.062-.656-1.797H.844c.015 1 .203 1.672.61 2.266C2.218-.235 3.577.359 5.39.359 6.75.36 7.859.047 8.594-.53a3.455 3.455 0 0 0 1.265-2.625c0-1.422-.89-2.438-2.453-2.86l-2.86-.765c-1.39-.39-1.89-.828-1.89-1.703 0-1.157 1.031-1.938 2.563-1.938 1.828 0 2.828.828 2.86 2.328zm0 0"/></symbol><symbol overflow="visible" id="B"><path class="stk-n" d="m4.547 0 3.156-8.234H6.22L3.89-1.563l-2.171-6.67h-1.5L3.125 0zm0 0"/></symbol><symbol overflow="visible" id="C"><path class="stk-n" d="M2.953-5.219h6.25v-1.297h-6.25v-3.64h6.485v-1.297H1.5V0h8.234v-1.297h-6.78zm0 0"/></symbol><symbol overflow="visible" id="F"><path class="stk-n" d="M6.953-5.938C6.937-7.563 5.875-8.483 3.97-8.483s-3.156 1-3.156 2.53c0 1.298.671 1.907 2.609 2.376l1.234.297c.89.219 1.266.547 1.266 1.14 0 .782-.766 1.297-1.922 1.297-.672 0-1.266-.203-1.594-.515-.25-.235-.328-.485-.422-1.094H.61C.672-.547 1.734.375 3.891.375c2.062 0 3.39-1.031 3.39-2.61 0-1.234-.687-1.921-2.328-2.312l-1.25-.281c-1.062-.25-1.515-.61-1.515-1.188 0-.765.671-1.25 1.75-1.25 1.03 0 1.593.454 1.64 1.329zm0 0"/></symbol><symbol overflow="visible" id="G"><path class="stk-n" d="M11.25-6.047H6.469v1.281h3.484v2.454C8.406-1.298 7.47-.938 6.281-.938c-1.093 0-2.14-.437-2.812-1.156-.75-.797-1.219-2.187-1.219-3.61 0-2.796 1.61-4.655 4.016-4.655 1.765 0 3.015.906 3.312 2.375h1.516c-.406-2.313-2.188-3.657-4.813-3.657-1.39 0-2.515.36-3.422 1.094C1.547-9.437.797-7.657.797-5.609.797-2.125 2.953.359 5.984.359c.844 0 2-.265 2.938-.64.719-.313 1.25-.61 2.328-1.36zm0 0"/></symbol><symbol overflow="visible" id="H"><path class="stk-n" d="M.922-11.453V0h1.187v-1.063C2.672-.125 3.547.375 4.72.375c2.156 0 3.562-1.781 3.562-4.516 0-2.687-1.344-4.343-3.515-4.343-1.141 0-1.922.421-2.547 1.359v-4.328zm3.61 4.203c1.452 0 2.39 1.266 2.39 3.234 0 1.875-.969 3.157-2.39 3.157-1.391 0-2.313-1.25-2.313-3.204 0-1.921.922-3.187 2.312-3.187zm0 0"/></symbol><symbol overflow="visible" id="I"><path class="stk-n" d="M8.484-.766c-.125.032-.203.032-.296.032-.438 0-.704-.22-.704-.641v-4.828c0-1.5-1.046-2.281-3.078-2.281-1.172 0-2.125.328-2.687.921-.407.422-.578.907-.61 1.766h1.329c.093-1 .687-1.469 1.921-1.469 1.172 0 1.829.438 1.829 1.25v.329c0 .562-.329.796-1.36.921-1.797.22-2.078.266-2.562.47C1.25-3.907.734-3.173.734-2.063.734-.579 1.781.374 3.438.374c1.046 0 1.874-.36 2.796-1.219.11.844.5 1.219 1.344 1.219.297 0 .453-.031.906-.156zM6.188-2.578c0 .437-.125.703-.5 1.062a2.91 2.91 0 0 1-1.954.735c-1.03 0-1.64-.5-1.64-1.313 0-.86.578-1.312 1.984-1.5 1.406-.203 1.688-.265 2.11-.469zm0 0"/></symbol><symbol overflow="visible" id="J"><path class="stk-n" d="M1.234-8.234V0h1.313v-5.188c0-1.187.86-2.14 1.937-2.14.954 0 1.516.61 1.516 1.64V0h1.328v-5.188c0-1.187.86-2.14 1.922-2.14.969 0 1.531.61 1.531 1.64V0h1.313v-6.172c0-1.484-.828-2.312-2.375-2.312-1.094 0-1.75.328-2.531 1.265-.485-.875-1.157-1.265-2.235-1.265-1.094 0-1.86.437-2.5 1.406v-1.156zm0 0"/></symbol></defs><path class="module-box" data-tstyle="module-box" d="M0 0h-198v288h396V0zm0 0" transform="matrix(1 0 0 -1 199.75 289.75)"/><g class="font-f" data-tstyle="font-f"><use xlink:href="#a" x="160.45" y="22.25"/><use xlink:href="#b" x="172.945" y="22.25"/><use xlink:href="#c" x="181.33" y="22.25"/><use xlink:href="#d" x="189.715" y="22.25"/><use xlink:href="#e" x="198.1" y="22.25"/><use xlink:href="#f" x="208.9" y="22.25"/><use xlink:href="#g" x="217.285" y="22.25"/><use xlink:href="#c" x="225.67" y="22.25"/><use xlink:href="#h" x="234.055" y="22.25"/></g><path class="class-box" data-tstyle="class-box" d="M0 0c-1.7 0-3.302-1.698-3.302-3.402v-29.296C-3.302-34.3-1.7-36 0-36h137.3c1.7 0 3.398 1.699 3.398 3.3v29.297c0 1.704-1.699 3.403-3.398 3.403zm0 0" transform="matrix(1 0 0 -1 215.45 70.95)"/><g class="font-e" data-tstyle="font-e"><use xlink:href="#i" x="243.75" y="94.65"/><use xlink:href="#j" x="257.046" y="94.65"/><use xlink:href="#k" x="265.942" y="94.65"/><use xlink:href="#l" x="274.742" y="94.65"/><use xlink:href="#m" x="283.638" y="94.65"/><use xlink:href="#n" x="295.142" y="94.65"/><use xlink:href="#o" x="298.726" y="94.65"/><use xlink:href="#k" x="302.31" y="94.65"/><use xlink:href="#p" x="311.206" y="94.65"/><use xlink:href="#q" x="320.102" y="94.65"/></g><path class="d-line" data-tstyle="d-line" d="M0 .002h-14.398" transform="matrix(1 0 0 -1 199.75 178.15)"/><path class="d-line" data-tstyle="d-line" d="M0 .002h-14.4" transform="matrix(1 0 0 -1 170.95 178.15)"/><path class="d-line" data-tstyle="d-line" d="M-.002.002H-14.4" transform="matrix(1 0 0 -1 142.15 178.15)"/><path class="d-line" data-tstyle="d-line" d="M.002.002h-14.403" transform="matrix(1 0 0 -1 113.35 178.15)"/><path class="d-line" data-tstyle="d-line" d="M0 .002h-14.402" transform="matrix(1 0 0 -1 84.55 178.15)"/><path class="d-line" data-tstyle="d-line" d="M0 .002h-14.398" transform="matrix(1 0 0 -1 55.75 178.15)"/><path class="d-line" data-tstyle="d-line" d="M0 .002h-7.2V7.2" transform="matrix(1 0 0 -1 26.95 178.15)"/><path class="d-line" data-tstyle="d-line" d="M0 0v14.402" transform="matrix(1 0 0 -1 19.75 156.55)"/><path class="d-line" data-tstyle="d-line" d="M0 0v14.398" transform="matrix(1 0 0 -1 19.75 127.75)"/><path class="d-line" data-tstyle="d-line" d="M0 0v14.4" transform="matrix(1 0 0 -1 19.75 98.95)"/><path class="d-line" data-tstyle="d-line" d="M0 .002V14.4" transform="matrix(1 0 0 -1 19.75 70.15)"/><path class="d-line" data-tstyle="d-line" d="M0-.002V3.6h10.8" transform="matrix(1 0 0 -1 19.75 41.35)"/><path class="d-line" data-tstyle="d-line" d="M0 0h14.402" transform="matrix(1 0 0 -1 44.95 37.75)"/><path class="d-line" data-tstyle="d-line" d="M0 0h14.398" transform="matrix(1 0 0 -1 73.75 37.75)"/><path class="d-line" data-tstyle="d-line" d="M0 0h14.4" transform="matrix(1 0 0 -1 102.55 37.75)"/><path class="d-line" data-tstyle="d-line" d="M.002 0H14.4" transform="matrix(1 0 0 -1 131.35 37.75)"/><path class="d-line" data-tstyle="d-line" d="M-.002 0h14.403" transform="matrix(1 0 0 -1 160.15 37.75)"/><path class="d-line" data-tstyle="d-line" d="M0 0h14.402" transform="matrix(1 0 0 -1 188.95 37.75)"/><path class="d-line" data-tstyle="d-line" d="M0 0h14.398" transform="matrix(1 0 0 -1 217.75 37.75)"/><path class="d-line" data-tstyle="d-line" d="M0 0h14.4" transform="matrix(1 0 0 -1 246.55 37.75)"/><path class="d-line" data-tstyle="d-line" d="M.002 0H14.4" transform="matrix(1 0 0 -1 275.35 37.75)"/><path class="d-line" data-tstyle="d-line" d="M-.002 0h14.403" transform="matrix(1 0 0 -1 304.15 37.75)"/><path class="d-line" data-tstyle="d-line" d="M0 0h14.402" transform="matrix(1 0 0 -1 332.95 37.75)"/><path class="d-line" data-tstyle="d-line" d="M0 0h14.398" transform="matrix(1 0 0 -1 361.75 37.75)"/><path class="d-line" data-tstyle="d-line" d="M0 0v-14.4" transform="matrix(1 0 0 -1 379.75 48.55)"/><path class="d-line" data-tstyle="d-line" d="M0-.002V-14.4" transform="matrix(1 0 0 -1 379.75 77.35)"/><path class="d-line" data-tstyle="d-line" d="M0 .002v-14.403" transform="matrix(1 0 0 -1 379.75 106.15)"/><path class="d-line" data-tstyle="d-line" d="M0 0v-14.402" transform="matrix(1 0 0 -1 379.75 134.95)"/><path class="d-line" data-tstyle="d-line" d="M0 0v-14.398" transform="matrix(1 0 0 -1 379.75 163.75)"/><path class="d-line" data-tstyle="d-line" d="M.002.002h-14.403" transform="matrix(1 0 0 -1 365.35 178.15)"/><path class="d-line" data-tstyle="d-line" d="M0 .002h-14.402" transform="matrix(1 0 0 -1 336.55 178.15)"/><path class="d-line" data-tstyle="d-line" d="M0 .002h-14.398" transform="matrix(1 0 0 -1 307.75 178.15)"/><path class="d-line" data-tstyle="d-line" d="M0 .002h-14.4" transform="matrix(1 0 0 -1 278.95 178.15)"/><path class="d-line" data-tstyle="d-line" d="M-.002.002H-14.4" transform="matrix(1 0 0 -1 250.15 178.15)"/><path class="d-line" data-tstyle="d-line" d="M.002.002h-14.403" transform="matrix(1 0 0 -1 221.35 178.15)"/><path class="class-box" data-tstyle="class-box" d="M.002 0c-1.704 0-3.403-1.698-3.403-3.402v-29.296C-3.4-34.3-1.7-36 .002-36h137.296c1.602 0 3.301 1.699 3.301 3.3v29.297c0 1.704-1.699 3.403-3.3 3.403zm0 0" transform="matrix(1 0 0 -1 46.85 70.95)"/><g class="font-e" data-tstyle="font-e"><use xlink:href="#i" x="65.35" y="94.65"/><use xlink:href="#j" x="78.742" y="94.65"/><use xlink:href="#k" x="87.542" y="94.65"/><use xlink:href="#l" x="96.438" y="94.65"/><use xlink:href="#r" x="105.334" y="94.65"/><use xlink:href="#k" x="116.838" y="94.65"/><use xlink:href="#s" x="125.734" y="94.65"/><use xlink:href="#t" x="133.638" y="94.65"/><use xlink:href="#u" x="142.534" y="94.65"/><use xlink:href="#k" x="151.43" y="94.65"/><use xlink:href="#v" x="160.326" y="94.65"/></g><g class="font-d" data-tstyle="font-d"><use xlink:href="#w" x="319.35" y="58.95"/><use xlink:href="#x" x="326.94" y="58.95"/><use xlink:href="#y" x="330.24" y="58.95"/><use xlink:href="#z" x="338.625" y="58.95"/><use xlink:href="#z" x="346.215" y="58.95"/><use xlink:href="#c" x="353.805" y="58.95"/><use xlink:href="#z" x="362.1" y="58.95"/></g><path class="class-box" data-tstyle="class-box" d="M0 0c-1.698 0-3.402-1.698-3.402-3.402v-29.296C-3.402-34.3-1.698-36 .001-36h137.3c1.598 0 3.297 1.699 3.297 3.3v29.297c0 1.704-1.699 3.403-3.296 3.403zm0 0" transform="matrix(1 0 0 -1 215.55 124.95)"/><g class="font-e" data-tstyle="font-e"><use xlink:href="#i" x="240.65" y="148.65"/><use xlink:href="#j" x="253.946" y="148.65"/><use xlink:href="#k" x="262.842" y="148.65"/><use xlink:href="#l" x="271.738" y="148.65"/><use xlink:href="#A" x="280.634" y="148.65"/><use xlink:href="#k" x="291.226" y="148.65"/><use xlink:href="#v" x="300.122" y="148.65"/><use xlink:href="#B" x="305.914" y="148.65"/><use xlink:href="#k" x="313.514" y="148.65"/><use xlink:href="#v" x="322.314" y="148.65"/></g><path class="class-box" data-tstyle="class-box" d="M.002 0c-1.704 0-3.403-1.698-3.403-3.402v-29.296C-3.4-34.3-1.7-36 .002-36h137.296c1.704 0 3.403 1.699 3.403 3.3v29.297c0 1.704-1.7 3.403-3.403 3.403zm0 0" transform="matrix(1 0 0 -1 46.85 124.95)"/><g class="font-e" data-tstyle="font-e"><use xlink:href="#i" x="65.85" y="148.65"/><use xlink:href="#j" x="79.146" y="148.65"/><use xlink:href="#k" x="88.042" y="148.65"/><use xlink:href="#l" x="96.842" y="148.65"/><use xlink:href="#C" x="105.738" y="148.65"/><use xlink:href="#p" x="116.426" y="148.65"/><use xlink:href="#s" x="125.322" y="148.65"/><use xlink:href="#t" x="133.226" y="148.65"/><use xlink:href="#u" x="142.122" y="148.65"/><use xlink:href="#k" x="151.018" y="148.65"/><use xlink:href="#v" x="159.914" y="148.65"/></g><path class="d-line" data-tstyle="d-line" d="M0 0h-14.398" transform="matrix(1 0 0 -1 199.75 278.95)"/><path class="d-line" data-tstyle="d-line" d="M0 0h-14.4" transform="matrix(1 0 0 -1 170.95 278.95)"/><path class="d-line" data-tstyle="d-line" d="M-.002 0H-14.4" transform="matrix(1 0 0 -1 142.15 278.95)"/><path class="d-line" data-tstyle="d-line" d="M.002 0h-14.403" transform="matrix(1 0 0 -1 113.35 278.95)"/><path class="d-line" data-tstyle="d-line" d="M0 0h-14.402" transform="matrix(1 0 0 -1 84.55 278.95)"/><path class="d-line" data-tstyle="d-line" d="M0 0h-14.398" transform="matrix(1 0 0 -1 55.75 278.95)"/><path class="d-line" data-tstyle="d-line" d="M0 0h-7.2v7.2" transform="matrix(1 0 0 -1 26.95 278.95)"/><path class="d-line" data-tstyle="d-line" d="M0-.002v14.403" transform="matrix(1 0 0 -1 19.75 257.35)"/><path class="d-line" data-tstyle="d-line" d="M0 0v14.402" transform="matrix(1 0 0 -1 19.75 228.55)"/><path class="d-line" data-tstyle="d-line" d="M0 0v3.602h10.8" transform="matrix(1 0 0 -1 19.75 199.75)"/><path class="d-line" data-tstyle="d-line" d="M0 .002h14.402" transform="matrix(1 0 0 -1 44.95 196.15)"/><path class="d-line" data-tstyle="d-line" d="M0 .002h14.398" transform="matrix(1 0 0 -1 73.75 196.15)"/><path class="d-line" data-tstyle="d-line" d="M0 .002h14.4" transform="matrix(1 0 0 -1 102.55 196.15)"/><path class="d-line" data-tstyle="d-line" d="M.002.002H14.4" transform="matrix(1 0 0 -1 131.35 196.15)"/><path class="d-line" data-tstyle="d-line" d="M-.002.002h14.403" transform="matrix(1 0 0 -1 160.15 196.15)"/><path class="d-line" data-tstyle="d-line" d="M0 .002h14.402" transform="matrix(1 0 0 -1 188.95 196.15)"/><path class="d-line" data-tstyle="d-line" d="M0 .002h14.398" transform="matrix(1 0 0 -1 217.75 196.15)"/><path class="d-line" data-tstyle="d-line" d="M0 .002h14.4" transform="matrix(1 0 0 -1 246.55 196.15)"/><path class="d-line" data-tstyle="d-line" d="M.002.002H14.4" transform="matrix(1 0 0 -1 275.35 196.15)"/><path class="d-line" data-tstyle="d-line" d="M-.002.002h14.403" transform="matrix(1 0 0 -1 304.15 196.15)"/><path class="d-line" data-tstyle="d-line" d="M0 .002h14.402" transform="matrix(1 0 0 -1 332.95 196.15)"/><path class="d-line" data-tstyle="d-line" d="M0 .002h14.398" transform="matrix(1 0 0 -1 361.75 196.15)"/><path class="d-line" data-tstyle="d-line" d="M0 0v-14.402" transform="matrix(1 0 0 -1 379.75 206.95)"/><path class="d-line" data-tstyle="d-line" d="M0 0v-14.398" transform="matrix(1 0 0 -1 379.75 235.75)"/><path class="d-line" data-tstyle="d-line" d="M0 0v-14.4" transform="matrix(1 0 0 -1 379.75 264.55)"/><path class="d-line" data-tstyle="d-line" d="M.002 0h-14.403" transform="matrix(1 0 0 -1 365.35 278.95)"/><path class="d-line" data-tstyle="d-line" d="M0 0h-14.402" transform="matrix(1 0 0 -1 336.55 278.95)"/><path class="d-line" data-tstyle="d-line" d="M0 0h-14.398" transform="matrix(1 0 0 -1 307.75 278.95)"/><path class="d-line" data-tstyle="d-line" d="M0 0h-14.4" transform="matrix(1 0 0 -1 278.95 278.95)"/><path class="d-line" data-tstyle="d-line" d="M-.002 0H-14.4" transform="matrix(1 0 0 -1 250.15 278.95)"/><path class="d-line" data-tstyle="d-line" d="M.002 0h-14.403" transform="matrix(1 0 0 -1 221.35 278.95)"/><g class="font-d" data-tstyle="font-d"><use xlink:href="#a" x="311.75" y="217.35"/><use xlink:href="#c" x="324.245" y="217.35"/><use xlink:href="#D" x="332.54" y="217.35"/><use xlink:href="#E" x="336.635" y="217.35"/><use xlink:href="#f" x="345.02" y="217.35"/><use xlink:href="#g" x="353.405" y="217.35"/><use xlink:href="#z" x="361.79" y="217.35"/></g><path class="func-box" data-tstyle="func-box" d="M0 0h-72v36H72V0zm0 0" transform="matrix(1 0 0 -1 115.45 264.55)"/><g class="font-e" data-tstyle="font-e"><use xlink:href="#F" x="81.85" y="252.25"/><use xlink:href="#k" x="89.754" y="252.25"/><use xlink:href="#q" x="98.458" y="252.25"/><use xlink:href="#G" x="102.938" y="252.25"/><use xlink:href="#n" x="115.242" y="252.25"/><use xlink:href="#t" x="118.826" y="252.25"/><use xlink:href="#H" x="127.722" y="252.25"/><use xlink:href="#I" x="136.618" y="252.25"/><use xlink:href="#n" x="145.514" y="252.25"/></g><path class="func-box" data-tstyle="func-box" d="M.002 0h-72v36h144V0zm0 0" transform="matrix(1 0 0 -1 284.85 264.55)"/><g class="font-e" data-tstyle="font-e"><use xlink:href="#v" x="257.95" y="252.25"/><use xlink:href="#k" x="263.054" y="252.25"/><use xlink:href="#I" x="271.95" y="252.25"/><use xlink:href="#u" x="280.846" y="252.25"/><use xlink:href="#J" x="289.742" y="252.25"/><use xlink:href="#k" x="303.038" y="252.25"/></g></svg>