<svg id="a272bf3b-65e5-490b-bdf0-082990667e29" data-name="Layer 1" xmlns="http://www.w3.org/2000/svg" width="1094" height="768.5" viewBox="0 0 1094 768.5"><title>image_focus</title><path fill="#3f3d56" d="M530 707.5h564v2H530zM495.53 94.016l-17.664-18.938 18.938-17.663 17.664 18.937zm-14.848-18.84 14.946 16.025 16.024-14.947-14.946-16.024zm229.767 288.929h-25.897v-25.897h25.897zm-23.905-1.992h21.913V340.2h-21.913z"/><path fill="#5cb85c" d="M0 222h663v478H0z"/><path fill="#3f3d56" d="M352 264 0 306.35v-36.27L352 264zm311 338.46v38.53L289 596l374 6.46zM539 489 0 558.9v-38.03L539 489zm124-127.83v39.59L102 328l561 33.17zM225 373 0 400.07v-23.18L225 373z"/><path d="M750 565H280V173h470zm-468-2h466V175H282z" fill="#3f3d56"/><path d="M777 174c0 .69-.02 1.37-.08 2.04a27.997 27.997 0 1 1-52.68-15.11 25.74 25.74 0 0 1 2.06-3.31 27.989 27.989 0 0 1 50.6 14.1c.07.75.1 1.51.1 2.28z" fill="#5cb85c"/><path d="M777 174c0 .69-.02 1.37-.08 2.04L735 171l41.9.72c.07.75.1 1.51.1 2.28zm-10 14.11-38.78 4.67a28.058 28.058 0 0 1-2.96-3.95zm-11-31-31.76 3.82a25.74 25.74 0 0 1 2.06-3.31z" fill="#3f3d56"/><path d="M611.91 700h-592s-9.89-145.1 41.44-173.3c.3-.17.61-.34.92-.49A38.144 38.144 0 0 1 78.91 522c71-2 63 78 152-32 55.35-68.41 118.05-91.95 160.91-84.34.79.14 1.57.29 2.35.45 24.84 5.16 42.61 21.06 47.74 44.89 14 65-27 117 48 101 35.11-7.49 77.45-2.27 106.3 17.92l.84.6c32.2 23.06 47.03 65.15 14.86 129.48z" fill="#2f2e41"/><path d="M394.17 406.11c-4.94 4.98-22.19 23.99-40.05 62.47-19.43 41.87-43.55 116-48.2 231.42v.04l-1-.04-1-.04c4.66-115.88 28.93-190.33 48.46-232.38 16.95-36.46 33.4-55.6 39.44-61.92.79.14 1.57.29 2.35.45zm126.006 294.17-1.92-.56c23.119-79.353 77.561-129.454 78.11-129.951l1.343 1.48c-.543.493-54.578 50.24-77.533 129.03zm-407.024-.142-1.982-.276c7.844-56.57-6.324-100.46-19.592-127.318-14.366-29.08-30.757-44.963-30.92-45.12l1.383-1.443c.166.159 16.81 16.286 31.33 45.677 13.392 27.11 27.694 71.405 19.78 128.48z" fill="#f2f2f2"/><path fill="#5cb85c" d="M252 147h56v56h-56z"/><path fill="#3f3d56" d="m257 162 51 3.02v3.59L257 162zm0 30 51 3.02v3.59L257 192zm-5-9.32 38-4.57-38 .66v3.91z"/><path fill="#5cb85c" d="m789.6 563.39-39.6 39.6-39.6-39.6 39.6-39.6 27.76 27.76 11.84 11.84z"/><path fill="#3f3d56" d="m774.77 548.56 2.99 2.99-39.76-5.16 36.77 2.17zM729 566.39l54.38 3.22-3.39 3.39-50.99-6.61zm33 19.11-26.32 3.17-2.67-2.67 28.99-.5zM87.53 459.016l-17.664-18.938 18.938-17.663 17.664 18.937zm-14.849-18.84 14.947 16.025 16.024-14.947-14.946-16.024z"/><path d="M726.356 286.368s-54.276 53.19-31.48 59.703 48.848-48.848 48.848-48.848zm54.276 179.11-6.513 30.395 48.848 2.171-7.599-32.566h-34.736zm154.144 187.795-6.513 30.395 48.848 2.171-7.599-32.566h-34.736z" fill="#a0616a"/><path d="m849.02 262.486 4.342 17.368s-120.493-23.881-113.98 36.908S774.12 436.17 774.12 436.17s-2.171 19.54 2.17 22.796 0 14.112 0 14.112 40.165 5.428 41.25-4.342a68.083 68.083 0 0 0-1.085-19.54s2.17 0 0-10.855S805.514 339.94 799 328c0 0 57.618 44.124 88.013 38.696 0 0-4.342 43.42 13.026 100.953s17.368 64.046 17.368 64.046 20.625 109.638 15.198 122.664l-1.086 5.427h40.164s-3.256-57.532 0-65.13 3.257-72.73-15.197-105.296C943.418 466.298 945.852 399.43 953 373c6.003-22.195 7.519-39.278 4-62-3.763-24.299-15-37-28.737-48.514z" fill="#2f2e41"/><circle cx="881.042" cy="60.037" r="39.079" fill="#a0616a"/><path d="M870.73 87.717s11.94 34.737 10.855 41.25 34.737-13.026 34.737-13.026-14.112-34.737-9.77-44.506z" fill="#a0616a"/><path d="m914.15 104-37.992 15.198 2.17 13.026s-3.256 4.342-2.17 6.513-14.112 10.855-11.941 14.112-13.026 16.282-11.94 19.539-34.738 22.796-15.198 60.79c0 0 10.13 13.169 8.861 28.743q-.067.821-.177 1.65c-2.171 16.283 82.5-2.17 82.5-2.17v-18.454s7.598-3.257 6.513-17.369-7.599-7.598 0-15.197 7.598-6.513 6.513-13.026c-.434-2.6-.521-11.953-.47-22.25a98.776 98.776 0 0 0-20.155-60.25z" fill="#d0cde1"/><path d="m893.526 132.224-70.559 73.815-103.124 81.414 22.796 18.454L932.605 178.9s16.282-69.473-39.08-46.677z" fill="#d0cde1"/><path d="M783.888 481.761s-7.598-13.026-13.026-8.684l-37.993 30.395s-67.302 19.539-2.171 34.736c0 0 35.822 5.428 43.42 0s19.54-4.342 22.797-2.17 44.506-1.086 44.506-9.77-22.75-46.638-22.75-46.638-13.072 15.157-34.783 2.131zm154.144 187.795s-7.598-13.026-13.026-8.684l-37.993 30.394s-67.302 19.54-2.171 34.737c0 0 35.822 5.428 43.42 0s19.54-4.342 22.796-2.17 44.507-1.086 44.507-9.77-22.75-46.639-22.75-46.639-13.072 15.158-34.783 2.132zM834.21 44.539s6.607-58.083 63.119-41.591c0 0 39.979-8.132 54.099 41.8l14.332 52.349-6.56-3.41-2.9 6.675-10.47 2.867-4.674-8.85-1.97 10.894-72.304 14.618s24.453-27.939 24.28-68.859l-7.202 7.91z" fill="#2f2e41"/><path fill="#3f3d56" d="M762 733.5h272v2H762zm-132 33h437v2H630z"/></svg>