<?xml version="1.0" encoding="UTF-8" standalone="no"?><svg version="1.1" xmlns="http://www.w3.org/2000/svg" xmlns:xlink="http://www.w3.org/1999/xlink" width="100%" style="max-width: 360px; height:auto; max-height: 360px;" viewBox="0 0 360 360"><path d="M299.672 318.974h-69.487c-7.72 0-14.67-4.633-17.758-11.581-3.088-6.949-1.544-15.442 3.86-20.846l64.083-64.083v-30.11L159.154 313.568c-3.86 3.86-8.493 5.405-13.898 5.405H60.328c-7.72 0-14.67-4.633-17.758-11.581-3.088-6.949-1.544-15.442 3.86-20.846L253.348 79.63h-30.11L74.224 228.64c-5.404 5.405-13.897 6.95-20.846 3.861-7.72-3.088-12.353-10.037-12.353-17.757v-84.929c0-5.405 2.316-10.037 5.405-13.897L82.718 79.63H59.556c-10.037 0-18.53-8.493-18.53-19.302s8.493-19.302 19.302-19.302h69.487c7.72 0 14.67 4.633 17.758 11.581 3.088 6.949 1.544 15.442-3.86 20.846L79.63 137.536v30.11L200.846 46.432c3.86-3.089 8.493-5.405 13.897-5.405h84.929c7.72 0 14.67 4.633 17.758 11.581 3.088 6.949 1.544 15.442-3.86 20.846L106.652 280.37h30.11l149.012-149.01c5.404-5.405 13.897-6.95 20.846-3.861 6.948 3.088 11.58 10.037 11.58 17.757v84.929c0 5.405-2.315 10.037-5.404 13.897L276.51 280.37h23.162c10.81 0 19.302 8.493 19.302 19.302s-8.493 19.302-19.302 19.302z" fill="#388e3c" stroke="null"/></svg>