<?xml version="1.0" encoding="UTF-8" standalone="no"?><svg version="1.1" xmlns="http://www.w3.org/2000/svg" xmlns:xlink="http://www.w3.org/1999/xlink" width="100%" style="max-width: 360px; height:auto; max-height: 360px;" viewBox="0 0 360 360"><defs><linearGradient id="a"><stop stop-color="#ffe052" offset="0"/><stop stop-color="#ffc331" offset="1"/></linearGradient><linearGradient gradientTransform="translate(-33.022 -67.786) scale(2.57579)" xlink:href="#a" id="d" x1="89.137" y1="111.921" x2="147.777" y2="168.101" gradientUnits="userSpaceOnUse"/><linearGradient id="b"><stop stop-color="#387eb8" offset="0"/><stop stop-color="#366994" offset="1"/></linearGradient><linearGradient gradientTransform="translate(-33.022 -67.786) scale(2.57579)" href="#b" xlink:href="#b" id="c" x1="55.549" y1="77.07" x2="110.149" y2="131.853" gradientUnits="userSpaceOnUse"/></defs><g stroke="null"><path fill="url(#c)" d="M223.912 105.999c-72.204 0-67.695 31.312-67.695 31.312l.08 32.438H225.2v9.74h-96.27s-46.203-5.24-46.203 67.614c0 72.855 40.327 70.271 40.327 70.271h24.068v-33.807s-1.298-40.327 39.683-40.327h68.339s38.395.62 38.395-37.108V143.75s5.83-37.75-69.627-37.75zm-37.993 21.813a12.384 12.384 0 0 1 12.396 12.396c0 6.856-5.54 12.396-12.396 12.396a12.384 12.384 0 0 1-12.396-12.396 12.385 12.385 0 0 1 12.396-12.396z" transform="translate(-44.938 -67.469)"/><path fill="url(#d)" d="M225.963 388.939c72.204 0 67.695-31.312 67.695-31.312l-.08-32.439h-68.903v-9.74h96.27s46.203 5.24 46.203-67.614-40.327-70.27-40.327-70.27h-24.068v33.807s1.298 40.327-39.683 40.327h-68.339s-38.395-.621-38.395 37.107v62.382s-5.83 37.752 69.627 37.752zm37.993-21.814a12.384 12.384 0 0 1-12.396-12.396c0-6.855 5.54-12.396 12.396-12.396 6.855 0 12.396 5.54 12.396 12.396a12.385 12.385 0 0 1-12.396 12.396z" transform="translate(-44.938 -67.469)"/></g></svg>