<?xml version="1.0" encoding="UTF-8" standalone="no"?><svg version="1.1" xmlns="http://www.w3.org/2000/svg" xmlns:xlink="http://www.w3.org/1999/xlink" width="100%" style="max-width: 640px; height:auto; max-height: 640px;" viewBox="0 0 640 640"><path style="fill:#fff" d="M235.068 146.268h69.796v69.796h-69.796z" transform="translate(-1897.722 -1168.246) scale(8.2148)"/><path d="M48.405 48.407h543.187v543.187H48.405z"/><g transform="translate(-2028.744 -1252.236) scale(8.69297)"><rect x="260.189" y="160.863" width="20" height="40" rx="10" ry="5" style="fill:#fff"/><rect x="250.189" y="170.863" width="40" height="20" rx="5" ry="10" style="fill:#fff"/><circle cx="264.689" cy="165.863" r="1.85"/><circle cx="275.689" cy="195.863" r="1.85"/><path style="stroke:#000" d="M260.189 170.363h10m0 21h10"/><path d="M259.689 190.863c0-2.5.156-4.375.508-5.781.352-1.406.899-2.344 1.68-2.969.781-.625 1.797-.937 3.086-1.094 1.289-.156 2.851-.156 4.726-.156 2.125 0 3.875 0 5.305-.156 1.43-.156 2.539-.469 3.383-1.094.844-.625 1.422-1.562 1.789-2.969.367-1.406.523-3.281.523-5.781" fill="none" style="stroke:#000"/></g><path style="fill:#fff" d="M231.012 142.212h7.304v6.087h-7.304zm10.956 0h7.304v6.087h-7.304zm10.956 0h7.304v6.087h-7.304zm10.956 0h7.304v6.087h-7.304zm10.956 0h7.304v6.087h-7.304zm10.955 0h7.304v6.087h-7.304z" transform="translate(-1832.72 -1106.244) scale(8.2148)"/><path style="fill:#fff" d="M231.012 142.212h7.304v6.087h-7.304zm10.956 0h7.304v6.087h-7.304zm10.956 0h7.304v6.087h-7.304zm10.956 0h7.304v6.087h-7.304zm10.956 0h7.304v6.087h-7.304zm10.955 0h7.304v6.087h-7.304z" transform="translate(-1832.72 -640.244) scale(8.2148)"/></svg>