<svg id="aab721b6-4aa1-4d02-a3e3-167256aa258c" data-name="Layer 1" xmlns="http://www.w3.org/2000/svg" width="980" height="489.48047" viewBox="0 0 980 489.48047"><path d="M207.06 0a205.979 205.979 0 0 0-77.685 15.067c-.993.407-1.99.816-2.988 1.235A206.78 206.78 0 0 0 0 207.06V433a9.01 9.01 0 0 0 9 9l.179.016c173.467 31.502 342.106 47.465 501.372 47.465q3.581 0 7.156-.011c156.555-.477 308.994-16.44 453.083-47.447L971 442a9.01 9.01 0 0 0 9-9V9a9.01 9.01 0 0 0-9-9z" fill="#a4a4a4"/><path data-name="Path 40" d="M745.8 180.193a5.947 5.947 0 0 0 0 11.892h149.085a5.947 5.947 0 1 0 .195-11.892q-.097-.002-.195 0z" fill="#3f3d56"/><path d="M928.694 178.537a1.17 1.17 0 0 0 0 1.655l5.023 5.023h-12.386a1.17 1.17 0 1 0 0 2.34h12.386l-5.023 5.023a1.17 1.17 0 1 0 1.655 1.654l7.02-7.02a1.17 1.17 0 0 0 0-1.655l-7.02-7.02a1.17 1.17 0 0 0-1.655 0zm-216.767 0a1.17 1.17 0 0 1 0 1.655l-5.022 5.023h12.385a1.17 1.17 0 1 1 0 2.34h-12.385l5.022 5.023a1.17 1.17 0 0 1-1.654 1.654l-7.02-7.02a1.17 1.17 0 0 1 0-1.655l7.02-7.02a1.17 1.17 0 0 1 1.654 0z" fill="#fff"/><g opacity=".4" fill="#fff"><circle cx="751.82" cy="50.39" r="6.39"/><circle cx="778.445" cy="50.39" r="6.39"/><circle cx="805.069" cy="50.39" r="6.39"/><circle cx="831.694" cy="50.39" r="6.39"/><circle cx="858.318" cy="50.39" r="6.39"/><circle cx="884.943" cy="50.39" r="6.39"/><circle cx="911.567" cy="50.39" r="6.39"/><circle cx="751.82" cy="70.625" r="6.39"/><circle cx="778.445" cy="70.625" r="6.39"/><circle cx="805.069" cy="70.625" r="6.39"/><circle cx="831.694" cy="70.625" r="6.39"/><circle cx="858.318" cy="70.625" r="6.39"/><circle cx="884.943" cy="70.625" r="6.39"/><circle cx="911.567" cy="70.625" r="6.39"/><circle cx="751.82" cy="90.859" r="6.39"/><circle cx="778.445" cy="90.859" r="6.39"/><circle cx="805.069" cy="90.859" r="6.39"/><circle cx="831.694" cy="90.859" r="6.39"/><circle cx="858.318" cy="90.859" r="6.39"/><circle cx="884.943" cy="90.859" r="6.39"/><circle cx="911.567" cy="90.859" r="6.39"/><circle cx="751.82" cy="111.094" r="6.39"/><circle cx="778.445" cy="111.094" r="6.39"/><circle cx="751.82" cy="131.329" r="6.39"/><circle cx="778.445" cy="131.329" r="6.39"/><circle cx="805.069" cy="131.329" r="6.39"/><circle cx="805.069" cy="111.094" r="6.39"/><circle cx="831.694" cy="111.094" r="6.39"/><circle cx="858.318" cy="111.094" r="6.39"/><circle cx="884.943" cy="111.094" r="6.39"/><circle cx="911.567" cy="111.094" r="6.39"/></g><path d="M660.157 375.459a35.272 35.272 0 1 1 35.273-35.272 35.313 35.313 0 0 1-35.273 35.272zm0-68.545a33.272 33.272 0 1 0 33.273 33.273 33.31 33.31 0 0 0-33.273-33.273z" fill="#3f3d56"/><path d="M673.68 336.806h-10.142v-10.143a3.38 3.38 0 0 0-6.761 0v10.143h-10.143a3.38 3.38 0 0 0 0 6.761h10.143v10.143a3.38 3.38 0 0 0 6.761 0v-10.143h10.143a3.38 3.38 0 1 0 0-6.761z" fill="#fff"/><g opacity=".4" fill="#fff"><circle cx="54.024" cy="374.766" r="5.024"/><circle cx="54.024" cy="353.833" r="5.024"/><circle cx="54.024" cy="332.9" r="5.024"/><circle cx="54.024" cy="311.967" r="5.024"/><circle cx="54.024" cy="291.034" r="5.024"/><circle cx="54.024" cy="270.101" r="5.024"/><circle cx="54.024" cy="249.168" r="5.024"/><circle cx="69.933" cy="374.766" r="5.024"/><circle cx="69.933" cy="353.833" r="5.024"/><circle cx="69.933" cy="332.9" r="5.024"/><circle cx="69.933" cy="311.967" r="5.024"/><circle cx="69.933" cy="291.034" r="5.024"/><circle cx="69.933" cy="270.101" r="5.024"/><circle cx="69.933" cy="249.168" r="5.024"/><circle cx="85.842" cy="374.766" r="5.024"/><circle cx="85.842" cy="353.833" r="5.024"/><circle cx="85.842" cy="332.9" r="5.024"/><circle cx="85.842" cy="311.967" r="5.024"/><circle cx="85.842" cy="291.034" r="5.024"/><circle cx="85.842" cy="270.101" r="5.024"/><circle cx="85.842" cy="249.168" r="5.024"/><circle cx="101.751" cy="374.766" r="5.024"/><circle cx="101.751" cy="353.833" r="5.024"/><circle cx="117.66" cy="374.766" r="5.024"/><circle cx="117.66" cy="353.833" r="5.024"/><circle cx="117.66" cy="332.9" r="5.024"/><circle cx="101.751" cy="332.9" r="5.024"/><circle cx="101.751" cy="311.967" r="5.024"/><circle cx="101.751" cy="291.034" r="5.024"/><circle cx="101.751" cy="270.101" r="5.024"/><circle cx="101.751" cy="249.168" r="5.024"/></g><path d="M497.408 33.002H163.666a6.189 6.189 0 0 0-6.182 6.183v285.383a6.189 6.189 0 0 0 6.182 6.182h333.742a6.189 6.189 0 0 0 6.183-6.182V39.185a6.189 6.189 0 0 0-6.183-6.183zm3.705 291.566a3.718 3.718 0 0 1-3.705 3.716H163.666a3.71 3.71 0 0 1-3.704-3.716V39.185a3.71 3.71 0 0 1 3.704-3.717h333.742a3.718 3.718 0 0 1 3.705 3.717z" fill="#3f3d56"/><path d="M240.702 280.006c0 .44-.011.88-.034 1.309a25.175 25.175 0 0 1-50.281 0 24.33 24.33 0 0 1-.035-1.309 25.175 25.175 0 1 1 50.35 0z" fill="#fff"/><path d="M471.475 263.22H273.663a4.197 4.197 0 0 0 0 8.393h197.812a4.197 4.197 0 0 0 0-8.394z" fill="#3f3d56"/><path d="M358.78 288.4h-85.117a4.191 4.191 0 0 0 0 8.382h85.117a4.191 4.191 0 1 0 0-8.382zm217.918-54.819h-333.74a8.559 8.559 0 0 1-8.549-8.55V78.57a8.559 8.559 0 0 1 8.549-8.549h333.74a8.559 8.559 0 0 1 8.55 8.55V225.03a8.559 8.559 0 0 1-8.55 8.55zM242.958 73.02a5.555 5.555 0 0 0-5.549 5.55v146.46a5.556 5.556 0 0 0 5.549 5.55h333.74a5.556 5.556 0 0 0 5.55-5.55V78.57a5.555 5.555 0 0 0-5.55-5.549z" fill="#fff"/><path d="M310.924 123.44a4.196 4.196 0 1 0 0 8.391h197.808a4.196 4.196 0 1 0 0-8.392zm0 24.312a4.196 4.196 0 0 0 0 8.392h197.808a4.196 4.196 0 0 0 0-8.392zm0 24.018a4.196 4.196 0 0 0 0 8.392h85.117a4.196 4.196 0 0 0 0-8.392zm320.8 123.863-33.52-47.307 10.85 2.26a1.501 1.501 0 1 0 .613-2.939l-16.17-3.366-2.183 16.37a1.501 1.501 0 1 0 2.976.397l1.463-10.993 33.523 47.312a1.5 1.5 0 1 0 2.448-1.734z" fill="#fff"/><path d="M449.666 433.32H211.409a4.417 4.417 0 0 1-4.412-4.412v-59.101a4.417 4.417 0 0 1 4.412-4.412h238.257a4.417 4.417 0 0 1 4.412 4.412v59.101a4.417 4.417 0 0 1-4.412 4.413zm-238.257-66.16a2.65 2.65 0 0 0-2.647 2.647v59.101a2.65 2.65 0 0 0 2.647 2.648h238.257a2.65 2.65 0 0 0 2.647-2.648v-59.101a2.65 2.65 0 0 0-2.647-2.647z" fill="#3f3d56"/><circle cx="248.429" cy="397.09" r="17.973" fill="#fff"/><path d="M289.938 385.108a2.995 2.995 0 1 0 0 5.991h141.215a2.995 2.995 0 1 0 0-5.99zm0 17.972a2.995 2.995 0 1 0 0 5.992h60.765a2.995 2.995 0 1 0 0-5.991z" fill="#fff"/><path d="M764.024 222.756h105.893a4.417 4.417 0 0 1 4.412 4.412V337.45a4.417 4.417 0 0 1-4.412 4.413H764.024a4.417 4.417 0 0 1-4.412-4.413V227.168a4.417 4.417 0 0 1 4.413-4.412zm105.893 117.342a2.65 2.65 0 0 0 2.647-2.648V227.168a2.65 2.65 0 0 0-2.647-2.647H764.024a2.65 2.65 0 0 0-2.647 2.647V337.45a2.65 2.65 0 0 0 2.648 2.648z" fill="#3f3d56"/><path d="M847.353 319.12a2.995 2.995 0 0 0 0-5.99h-60.765a2.995 2.995 0 0 0 0 5.99zm0-17.648a2.995 2.995 0 1 0 0-5.991h-60.765a2.995 2.995 0 1 0 0 5.99zm-30.383-55.974a18.855 18.855 0 1 1-18.855 18.855 18.876 18.876 0 0 1 18.855-18.855z" fill="#fff"/></svg>